# Blender 3.6.1
# www.blender.org
mtllib SpiderWeb.mtl
o Cylinder
v 0.500355 0.000000 0.000355
v 0.353908 0.000000 0.353908
v 0.000355 0.000000 0.500355
v -0.353199 0.000000 0.353908
v -0.499645 0.000000 0.000355
v -0.353199 0.000000 -0.353199
v 0.000355 0.000000 -0.499645
v 0.353908 0.000000 -0.353199
v 0.580841 0.000000 0.000355
v 0.410820 0.000000 0.410820
v 0.000355 0.000000 0.580841
v -0.410111 0.000000 0.410820
v -0.580131 0.000000 0.000355
v -0.410111 0.000000 -0.410111
v 0.000355 0.000000 -0.580131
v 0.410820 0.000000 -0.410111
vn -0.0000 1.0000 -0.0000
vt 0.080294 0.419706
vt 0.010000 0.250000
vt 0.080294 0.080294
vt 0.250000 0.010000
vt 0.419706 0.080294
vt 0.490000 0.250000
vt 0.419706 0.419706
vt 0.250000 0.490000
s 0
f 8/1/1 16/1/1 15/2/1 7/2/1
f 6/3/1 14/3/1 13/4/1 5/4/1
f 4/5/1 12/5/1 11/6/1 3/6/1
f 2/7/1 10/7/1 9/8/1 1/8/1
f 1/8/1 9/8/1 16/1/1 8/1/1
f 7/2/1 15/2/1 14/3/1 6/3/1
f 5/4/1 13/4/1 12/5/1 4/5/1
f 3/6/1 11/6/1 10/7/1 2/7/1
o Cylinder.001
v 0.937434 0.000000 0.000355
v 0.662970 0.000000 0.662970
v 0.000355 0.000000 0.937434
v -0.662261 0.000000 0.662970
v -0.936725 0.000000 0.000355
v -0.662261 0.000000 -0.662261
v 0.000355 0.000000 -0.936725
v 0.662970 0.000000 -0.662261
v 1.036729 0.000000 0.000355
v 0.733182 0.000000 0.733182
v 0.000355 0.000000 1.036729
v -0.732472 0.000000 0.733182
v -1.036019 0.000000 0.000355
v -0.732472 0.000000 -0.732472
v 0.000355 0.000000 -1.036019
v 0.733182 0.000000 -0.732472
vn -0.0000 1.0000 -0.0000
vt 0.080294 0.419706
vt 0.010000 0.250000
vt 0.080294 0.080294
vt 0.250000 0.010000
vt 0.419706 0.080294
vt 0.490000 0.250000
vt 0.419706 0.419706
vt 0.250000 0.490000
s 0
f 24/9/2 32/9/2 31/10/2 23/10/2
f 22/11/2 30/11/2 29/12/2 21/12/2
f 20/13/2 28/13/2 27/14/2 19/14/2
f 18/15/2 26/15/2 25/16/2 17/16/2
f 17/16/2 25/16/2 32/9/2 24/9/2
f 23/10/2 31/10/2 30/11/2 22/11/2
f 21/12/2 29/12/2 28/13/2 20/13/2
f 19/14/2 27/14/2 26/15/2 18/15/2
o Cylinder.002
v 1.378213 0.000000 0.000355
v 0.974648 0.000000 0.974647
v 0.000355 0.000000 1.378213
v -0.973938 0.000000 0.974648
v -1.377504 0.000000 0.000355
v -0.973938 0.000000 -0.973938
v 0.000355 0.000000 -1.377504
v 0.974647 0.000000 -0.973938
v 1.463180 0.000000 0.000355
v 1.034728 0.000000 1.034728
v 0.000355 0.000000 1.463180
v -1.034019 0.000000 1.034728
v -1.462470 0.000000 0.000355
v -1.034019 0.000000 -1.034019
v 0.000355 0.000000 -1.462470
v 1.034728 0.000000 -1.034019
vn -0.0000 1.0000 -0.0000
vt 0.080294 0.419706
vt 0.010000 0.250000
vt 0.080294 0.080294
vt 0.250000 0.010000
vt 0.419706 0.080294
vt 0.490000 0.250000
vt 0.419706 0.419706
vt 0.250000 0.490000
s 0
f 40/17/3 48/17/3 47/18/3 39/18/3
f 38/19/3 46/19/3 45/20/3 37/20/3
f 36/21/3 44/21/3 43/22/3 35/22/3
f 34/23/3 42/23/3 41/24/3 33/24/3
f 33/24/3 41/24/3 48/17/3 40/17/3
f 39/18/3 47/18/3 46/19/3 38/19/3
f 37/20/3 45/20/3 44/21/3 36/21/3
f 35/22/3 43/22/3 42/23/3 34/23/3
o Cylinder.003
v 1.803674 0.000000 0.000354
v 1.275494 0.000000 1.275494
v 0.000355 0.000000 1.803674
v -1.274784 0.000000 1.275494
v -1.802965 0.000000 0.000355
v -1.274785 0.000000 -1.274784
v 0.000354 0.000000 -1.802965
v 1.275494 0.000000 -1.274785
v 1.902027 0.000000 0.000354
v 1.345040 0.000000 1.345040
v 0.000355 0.000000 1.902027
v -1.344331 0.000000 1.345040
v -1.901318 0.000000 0.000355
v -1.344331 0.000000 -1.344331
v 0.000354 0.000000 -1.901318
v 1.345040 0.000000 -1.344331
vn -0.0000 1.0000 -0.0000
vt 0.080294 0.419706
vt 0.010000 0.250000
vt 0.080294 0.080294
vt 0.250000 0.010000
vt 0.419706 0.080294
vt 0.490000 0.250000
vt 0.419706 0.419706
vt 0.250000 0.490000
s 0
f 56/25/4 64/25/4 63/26/4 55/26/4
f 54/27/4 62/27/4 61/28/4 53/28/4
f 52/29/4 60/29/4 59/30/4 51/30/4
f 50/31/4 58/31/4 57/32/4 49/32/4
f 49/32/4 57/32/4 64/25/4 56/25/4
f 55/26/4 63/26/4 62/27/4 54/27/4
f 53/28/4 61/28/4 60/29/4 52/29/4
f 51/30/4 59/30/4 58/31/4 50/31/4
o Cylinder.004
v 0.200033 0.000000 0.000355
v 0.141549 0.000000 0.141549
v 0.000355 0.000000 0.200033
v -0.140839 0.000000 0.141549
v -0.199324 0.000000 0.000355
v -0.140839 0.000000 -0.140839
v 0.000355 0.000000 -0.199324
v 0.141549 0.000000 -0.140839
v 0.262018 0.000000 0.000355
v 0.185379 0.000000 0.185379
v 0.000355 0.000000 0.262018
v -0.184669 0.000000 0.185379
v -0.261309 0.000000 0.000355
v -0.184669 0.000000 -0.184669
v 0.000355 0.000000 -0.261309
v 0.185379 0.000000 -0.184669
vn -0.0000 1.0000 -0.0000
vt 0.080294 0.419706
vt 0.010000 0.250000
vt 0.080294 0.080294
vt 0.250000 0.010000
vt 0.419706 0.080294
vt 0.490000 0.250000
vt 0.419706 0.419706
vt 0.250000 0.490000
s 0
f 72/33/5 80/33/5 79/34/5 71/34/5
f 70/35/5 78/35/5 77/36/5 69/36/5
f 68/37/5 76/37/5 75/38/5 67/38/5
f 66/39/5 74/39/5 73/40/5 65/40/5
f 65/40/5 73/40/5 80/33/5 72/33/5
f 71/34/5 79/34/5 78/35/5 70/35/5
f 69/36/5 77/36/5 76/37/5 68/37/5
f 67/38/5 75/38/5 74/39/5 66/39/5
o Plane
v -1.837494 0.000000 -0.036316
v -1.837494 0.000000 0.037025
v -0.000222 0.000000 -0.036316
v -0.000222 0.000000 0.037025
vn -0.0000 1.0000 -0.0000
vt 0.000000 0.000000
vt 1.000000 0.000000
vt 1.000000 1.000000
vt 0.000000 1.000000
s 0
f 81/41/6 82/42/6 84/43/6 83/44/6
o Plane.001
v -2.802720 0.000000 -2.854002
v -2.854579 0.000000 -2.802142
v 0.025708 0.000000 -0.025575
v -0.026152 0.000000 0.026285
vn -0.0000 1.0000 -0.0000
vt 0.000000 0.000000
vt 1.000000 0.000000
vt 1.000000 1.000000
vt 0.000000 1.000000
s 0
f 85/45/7 86/46/7 88/47/7 87/48/7
o Plane.002
v 0.036448 0.000000 -2.999645
v -0.036893 0.000000 -2.999645
v 0.036449 0.000000 0.000355
v -0.036892 0.000000 0.000355
vn -0.0000 1.0000 -0.0000
vt 0.000000 0.000000
vt 1.000000 0.000000
vt 1.000000 1.000000
vt 0.000000 1.000000
s 0
f 89/49/8 90/50/8 92/51/8 91/52/8
o Plane.003
v 2.854135 0.000000 -2.802143
v 2.802275 0.000000 -2.854003
v 0.025708 0.000000 0.026285
v -0.026152 0.000000 -0.025575
vn -0.0000 1.0000 -0.0000
vt 0.000000 0.000000
vt 1.000000 0.000000
vt 1.000000 1.000000
vt 0.000000 1.000000
s 0
f 93/53/9 94/54/9 96/55/9 95/56/9
o Plane.004
v 1.840261 0.000000 0.037024
v 1.840261 0.000000 -0.036317
v -0.000222 0.000000 0.037025
v -0.000222 0.000000 -0.036316
vn -0.0000 1.0000 -0.0000
vt 0.000000 0.000000
vt 1.000000 0.000000
vt 1.000000 1.000000
vt 0.000000 1.000000
s 0
f 97/57/10 98/58/10 100/59/10 99/60/10
o Plane.005
v 2.802276 0.000000 2.854711
v 2.854136 0.000000 2.802851
v -0.026152 0.000000 0.026285
v 0.025708 0.000000 -0.025575
vn -0.0000 1.0000 -0.0000
vt 0.000000 0.000000
vt 1.000000 0.000000
vt 1.000000 1.000000
vt 0.000000 1.000000
s 0
f 101/61/11 102/62/11 104/63/11 103/64/11
o Plane.006
v -0.036893 0.000000 3.000355
v 0.036448 0.000000 3.000355
v -0.036892 0.000000 0.000355
v 0.036449 0.000000 0.000355
vn -0.0000 1.0000 -0.0000
vt 0.000000 0.000000
vt 1.000000 0.000000
vt 1.000000 1.000000
vt 0.000000 1.000000
s 0
f 105/65/12 106/66/12 108/67/12 107/68/12
o Plane.007
v -2.854580 0.000000 2.802850
v -2.802720 0.000000 2.854710
v -0.026152 0.000000 -0.025575
v 0.025708 0.000000 0.026285
vn -0.0000 1.0000 -0.0000
vt 0.000000 0.000000
vt 1.000000 0.000000
vt 1.000000 1.000000
vt 0.000000 1.000000
s 0
f 109/69/13 110/70/13 112/71/13 111/72/13
