# Blender 3.6.1
# www.blender.org
mtllib Insect_2.mtl
o Cube
v -0.561511 1.516585 -0.463705
v -0.571170 0.522027 -0.463705
v -0.561511 1.516585 0.465716
v -0.571170 0.522027 0.465716
v -0.648125 0.439886 -0.000000
v 0.000000 0.352746 -0.479255
v -0.725020 1.000000 0.478716
v -0.725020 1.000000 -0.479255
v 0.000000 1.648168 0.478716
v 0.000000 0.352746 0.478716
v -0.638466 1.603050 -0.000000
v 0.000000 1.648168 -0.479255
v 0.000000 1.829623 -0.000000
v 0.000000 1.000000 0.505998
v -0.886518 1.000000 -0.000000
v 0.000000 0.180366 0.000000
v 0.000000 1.000000 -0.511887
v -0.576081 0.390334 0.049549
v -0.515275 0.455237 0.417531
v -0.063970 0.321480 0.427803
v -0.063970 0.185276 0.049549
v -0.514460 0.044586 0.245192
v -0.504408 0.033967 0.382020
v -0.333627 0.039310 0.391653
v -0.314218 0.034328 0.246902
v 0.561511 1.516585 -0.463705
v 0.571170 0.522027 -0.463705
v 0.561511 1.516585 0.465716
v 0.571170 0.522027 0.465716
v 0.648125 0.439886 -0.000000
v 0.725020 1.000000 0.478716
v 0.725020 1.000000 -0.479255
v 0.638466 1.603050 -0.000000
v 0.886518 1.000000 -0.000000
v 0.576081 0.390334 0.049549
v 0.515275 0.455237 0.417531
v 0.063970 0.321480 0.427803
v 0.063970 0.185276 0.049549
v 0.514460 0.044586 0.245192
v 0.504408 0.033967 0.382020
v 0.333627 0.039310 0.391653
v 0.314218 0.034328 0.246902
vn -0.2776 0.9179 -0.2835
vn -0.2771 0.9182 0.2831
vn -0.0353 0.0395 0.9986
vn -0.0363 -0.0407 0.9985
vn -0.9027 -0.3443 0.2579
vn -0.9055 0.3359 0.2594
vn -0.9052 0.3363 -0.2597
vn -0.9024 -0.3449 -0.2582
vn -0.3224 -0.9069 -0.2711
vn -0.3466 -0.8655 -0.3617
vn -0.0434 -0.0487 -0.9979
vn -0.0422 0.0472 -0.9980
vn 0.6637 -0.7156 0.2178
vn -0.6553 -0.7179 0.2349
vn 0.1869 -0.9243 0.3328
vn -0.2187 -0.6847 0.6953
vn -0.0126 -0.9997 -0.0204
vn -0.9874 -0.0630 0.1454
vn -0.1706 -0.5707 -0.8032
vn -0.0491 -0.0833 0.9953
vn 0.2776 0.9179 -0.2835
vn 0.2771 0.9182 0.2831
vn 0.0353 0.0395 0.9986
vn 0.0363 -0.0407 0.9985
vn 0.9027 -0.3443 0.2579
vn 0.9055 0.3359 0.2594
vn 0.9052 0.3363 -0.2597
vn 0.9024 -0.3449 -0.2582
vn 0.3224 -0.9069 -0.2711
vn 0.3466 -0.8655 -0.3617
vn 0.0434 -0.0487 -0.9979
vn 0.0422 0.0472 -0.9980
vn -0.6637 -0.7156 0.2178
vn 0.6553 -0.7179 0.2349
vn -0.1869 -0.9243 0.3328
vn 0.2187 -0.6847 0.6953
vn 0.0126 -0.9997 -0.0204
vn 0.9874 -0.0630 0.1454
vn 0.1706 -0.5707 -0.8032
vn 0.0491 -0.0833 0.9953
vt 0.060577 0.489231
s 0
usemtl Material
f 12/1/1 1/1/1 11/1/1 13/1/1
f 13/1/2 11/1/2 3/1/2 9/1/2
f 14/1/3 9/1/3 3/1/3 7/1/3
f 10/1/4 14/1/4 7/1/4 4/1/4
f 4/1/5 7/1/5 15/1/5 5/1/5
f 7/1/6 3/1/6 11/1/6 15/1/6
f 15/1/7 11/1/7 1/1/7 8/1/7
f 5/1/8 15/1/8 8/1/8 2/1/8
f 2/1/9 6/1/9 16/1/9 5/1/9
f 5/1/10 16/1/10 21/1/10 18/1/10
f 2/1/11 8/1/11 17/1/11 6/1/11
f 8/1/12 1/1/12 12/1/12 17/1/12
f 21/1/13 20/1/13 24/1/13 25/1/13
f 4/1/14 5/1/14 18/1/14 19/1/14
f 16/1/15 10/1/15 20/1/15 21/1/15
f 10/1/16 4/1/16 19/1/16 20/1/16
f 22/1/17 25/1/17 24/1/17 23/1/17
f 19/1/18 18/1/18 22/1/18 23/1/18
f 18/1/19 21/1/19 25/1/19 22/1/19
f 20/1/20 19/1/20 23/1/20 24/1/20
f 12/1/21 13/1/21 33/1/21 26/1/21
f 13/1/22 9/1/22 28/1/22 33/1/22
f 14/1/23 31/1/23 28/1/23 9/1/23
f 10/1/24 29/1/24 31/1/24 14/1/24
f 29/1/25 30/1/25 34/1/25 31/1/25
f 31/1/26 34/1/26 33/1/26 28/1/26
f 34/1/27 32/1/27 26/1/27 33/1/27
f 30/1/28 27/1/28 32/1/28 34/1/28
f 27/1/29 30/1/29 16/1/29 6/1/29
f 30/1/30 35/1/30 38/1/30 16/1/30
f 27/1/31 6/1/31 17/1/31 32/1/31
f 32/1/32 17/1/32 12/1/32 26/1/32
f 38/1/33 42/1/33 41/1/33 37/1/33
f 29/1/34 36/1/34 35/1/34 30/1/34
f 16/1/35 38/1/35 37/1/35 10/1/35
f 10/1/36 37/1/36 36/1/36 29/1/36
f 39/1/37 40/1/37 41/1/37 42/1/37
f 36/1/38 40/1/38 39/1/38 35/1/38
f 35/1/39 39/1/39 42/1/39 38/1/39
f 37/1/40 41/1/40 40/1/40 36/1/40
o Cube.001
v -0.406594 1.381653 0.407638
v -0.413935 0.625793 0.407638
v -0.406594 1.381653 1.113993
v -0.413935 0.625793 1.113993
v -0.472421 0.563367 0.760051
v 0.020151 0.497140 0.395820
v -0.530861 0.989051 1.123873
v -0.530861 0.989051 0.395820
v 0.020151 1.481655 1.123873
v 0.020151 0.497140 1.123873
v -0.465080 1.447366 0.760051
v 0.020151 1.481655 0.395820
v 0.020151 1.619560 0.760051
v 0.020151 0.989051 1.295016
v -0.653599 0.989051 0.760051
v 0.020151 0.366132 0.760051
v 0.446896 1.381653 0.407638
v 0.454237 0.625793 0.407638
v 0.446896 1.381653 1.113993
v 0.454237 0.625793 1.113993
v 0.512723 0.563367 0.760051
v 0.571163 0.989051 1.123873
v 0.571163 0.989051 0.395820
v 0.505382 1.447366 0.760051
v 0.693901 0.989051 0.760051
vn -0.2776 0.9179 -0.2835
vn -0.2771 0.9182 0.2831
vn -0.1995 0.2231 0.9542
vn -0.2048 -0.2294 0.9515
vn -0.9027 -0.3443 0.2579
vn -0.9055 0.3359 0.2594
vn -0.9052 0.3363 -0.2597
vn -0.9024 -0.3449 -0.2582
vn -0.3224 -0.9069 -0.2711
vn -0.3219 -0.9072 0.2707
vn 0.2776 0.9179 -0.2835
vn 0.2771 0.9182 0.2831
vn 0.1995 0.2231 0.9542
vn 0.2048 -0.2294 0.9515
vn 0.9027 -0.3443 0.2579
vn 0.9055 0.3359 0.2594
vn 0.9052 0.3363 -0.2597
vn 0.9024 -0.3449 -0.2582
vn 0.3224 -0.9069 -0.2711
vn 0.3219 -0.9072 0.2707
vt 0.162116 0.486154
s 0
usemtl Material
f 54/2/41 43/2/41 53/2/41 55/2/41
f 55/2/42 53/2/42 45/2/42 51/2/42
f 56/2/43 51/2/43 45/2/43 49/2/43
f 52/2/44 56/2/44 49/2/44 46/2/44
f 46/2/45 49/2/45 57/2/45 47/2/45
f 49/2/46 45/2/46 53/2/46 57/2/46
f 57/2/47 53/2/47 43/2/47 50/2/47
f 47/2/48 57/2/48 50/2/48 44/2/48
f 44/2/49 48/2/49 58/2/49 47/2/49
f 47/2/50 58/2/50 52/2/50 46/2/50
f 54/2/51 55/2/51 66/2/51 59/2/51
f 55/2/52 51/2/52 61/2/52 66/2/52
f 56/2/53 64/2/53 61/2/53 51/2/53
f 52/2/54 62/2/54 64/2/54 56/2/54
f 62/2/55 63/2/55 67/2/55 64/2/55
f 64/2/56 67/2/56 66/2/56 61/2/56
f 67/2/57 65/2/57 59/2/57 66/2/57
f 63/2/58 60/2/58 65/2/58 67/2/58
f 60/2/59 63/2/59 58/2/59 48/2/59
f 63/2/60 62/2/60 52/2/60 58/2/60
o Cube.002
v -0.406594 1.266554 -1.117133
v -0.413935 0.510694 -1.117133
v -0.406594 1.266553 -0.410777
v -0.413935 0.510694 -0.410777
v -0.472421 0.448267 -0.764719
v 0.020151 0.382041 -1.128951
v -0.530861 0.873951 -0.400897
v -0.530861 0.873951 -1.128951
v 0.020151 1.366556 -0.400897
v 0.020151 0.382041 -0.400897
v -0.465080 1.332267 -0.764719
v 0.020151 1.366556 -1.128951
v 0.020151 1.504461 -0.764719
v -0.653599 0.873951 -0.764719
v 0.020151 0.251033 -0.764719
v 0.020151 0.873951 -1.153752
v -0.444101 0.409176 -0.718107
v -0.397629 0.458780 -0.436866
v -0.052707 0.356553 -0.429016
v -0.052707 0.252455 -0.718107
v -0.458182 0.017786 -0.578944
v -0.437570 0.009084 -0.479815
v -0.311663 0.014954 -0.489095
v -0.311300 0.012538 -0.596986
v 0.446896 1.266554 -1.117133
v 0.454237 0.510694 -1.117133
v 0.446896 1.266553 -0.410777
v 0.454237 0.510694 -0.410777
v 0.512723 0.448267 -0.764719
v 0.571163 0.873951 -0.400897
v 0.571163 0.873951 -1.128951
v 0.505382 1.332267 -0.764719
v 0.693901 0.873951 -0.764719
v 0.484404 0.409176 -0.718107
v 0.437931 0.458780 -0.436866
v 0.093009 0.356553 -0.429016
v 0.093009 0.252455 -0.718107
v 0.498484 0.017786 -0.578944
v 0.477872 0.009084 -0.479815
v 0.351965 0.014954 -0.489095
v 0.351602 0.012538 -0.596986
vn -0.2776 0.9179 -0.2835
vn -0.2771 0.9182 0.2831
vn -0.9027 -0.3443 0.2579
vn -0.9055 0.3359 0.2594
vn -0.9052 0.3363 -0.2597
vn -0.9024 -0.3449 -0.2582
vn -0.3224 -0.9069 -0.2711
vn -0.8950 -0.3900 0.2167
vn -0.0434 -0.0487 -0.9979
vn -0.0422 0.0472 -0.9980
vn 0.7446 -0.6445 0.1736
vn 0.1946 -0.9229 0.3323
vn -0.1628 -0.4834 0.8601
vn -0.3253 -0.8125 -0.4837
vn -0.0008 -0.9995 -0.0303
vn -0.9830 0.0820 0.1645
vn -0.1304 -0.3292 -0.9352
vn -0.0217 -0.1210 0.9924
vn 0.2776 0.9179 -0.2835
vn 0.2771 0.9182 0.2831
vn 0.9027 -0.3443 0.2579
vn 0.9055 0.3359 0.2594
vn 0.9052 0.3363 -0.2597
vn 0.9024 -0.3449 -0.2582
vn 0.3224 -0.9069 -0.2711
vn 0.8950 -0.3900 0.2167
vn 0.0434 -0.0487 -0.9979
vn 0.0422 0.0472 -0.9980
vn -0.7446 -0.6445 0.1736
vn -0.1946 -0.9229 0.3323
vn 0.1628 -0.4834 0.8601
vn 0.3253 -0.8125 -0.4837
vn 0.0008 -0.9995 -0.0303
vn 0.9830 0.0820 0.1645
vn 0.1304 -0.3292 -0.9352
vn 0.0217 -0.1210 0.9924
vt 0.162116 0.486154
s 0
usemtl Material
f 79/3/61 68/3/61 78/3/61 80/3/61
f 80/3/62 78/3/62 70/3/62 76/3/62
f 71/3/63 74/3/63 81/3/63 72/3/63
f 74/3/64 70/3/64 78/3/64 81/3/64
f 81/3/65 78/3/65 68/3/65 75/3/65
f 72/3/66 81/3/66 75/3/66 69/3/66
f 69/3/67 73/3/67 82/3/67 72/3/67
f 71/3/68 72/3/68 84/3/68 85/3/68
f 69/3/69 75/3/69 83/3/69 73/3/69
f 75/3/70 68/3/70 79/3/70 83/3/70
f 87/3/71 86/3/71 90/3/71 91/3/71
f 82/3/72 77/3/72 86/3/72 87/3/72
f 77/3/73 71/3/73 85/3/73 86/3/73
f 72/3/74 82/3/74 87/3/74 84/3/74
f 88/3/75 91/3/75 90/3/75 89/3/75
f 85/3/76 84/3/76 88/3/76 89/3/76
f 84/3/77 87/3/77 91/3/77 88/3/77
f 86/3/78 85/3/78 89/3/78 90/3/78
f 79/3/79 80/3/79 99/3/79 92/3/79
f 80/3/80 76/3/80 94/3/80 99/3/80
f 95/3/81 96/3/81 100/3/81 97/3/81
f 97/3/82 100/3/82 99/3/82 94/3/82
f 100/3/83 98/3/83 92/3/83 99/3/83
f 96/3/84 93/3/84 98/3/84 100/3/84
f 93/3/85 96/3/85 82/3/85 73/3/85
f 95/3/86 102/3/86 101/3/86 96/3/86
f 93/3/87 73/3/87 83/3/87 98/3/87
f 98/3/88 83/3/88 79/3/88 92/3/88
f 104/3/89 108/3/89 107/3/89 103/3/89
f 82/3/90 104/3/90 103/3/90 77/3/90
f 77/3/91 103/3/91 102/3/91 95/3/91
f 96/3/92 101/3/92 104/3/92 82/3/92
f 105/3/93 106/3/93 107/3/93 108/3/93
f 102/3/94 106/3/94 105/3/94 101/3/94
f 101/3/95 105/3/95 108/3/95 104/3/95
f 103/3/96 107/3/96 106/3/96 102/3/96
o Cube.003
v -0.281013 1.035147 -1.598230
v -0.286194 0.501719 -1.598230
v -0.281013 1.035147 -1.099738
v -0.286194 0.501719 -1.099738
v -0.327469 0.457663 -1.349523
v 0.020151 0.410926 -1.606570
v -0.368711 0.758079 -1.092765
v -0.368711 0.758079 -1.606570
v 0.020151 1.105721 -1.092765
v 0.020151 0.410926 -1.092765
v -0.322288 1.081523 -1.349523
v 0.020151 1.105721 -1.606570
v 0.020151 1.203044 -1.349523
v -0.455330 0.758079 -1.349523
v 0.020151 0.318470 -1.349523
v 0.020151 0.758079 -1.624072
v -0.284837 0.013970 -1.269246
v -0.259901 0.020805 -1.147161
v -0.106106 0.037624 -1.159454
v -0.104280 0.017764 -1.290468
v 0.321315 1.035147 -1.598230
v 0.326496 0.501719 -1.598230
v 0.321315 1.035147 -1.099738
v 0.326496 0.501719 -1.099738
v 0.367771 0.457663 -1.349523
v 0.409013 0.758079 -1.092765
v 0.409013 0.758079 -1.606570
v 0.362590 1.081523 -1.349523
v 0.495632 0.758079 -1.349523
v 0.325139 0.013970 -1.269246
v 0.300203 0.020805 -1.147161
v 0.146409 0.037624 -1.159454
v 0.144582 0.017764 -1.290468
vn -0.2776 0.9179 -0.2835
vn -0.2771 0.9182 0.2831
vn -0.9027 -0.3443 0.2579
vn -0.9055 0.3359 0.2594
vn -0.9052 0.3363 -0.2597
vn -0.9024 -0.3449 -0.2582
vn -0.3224 -0.9069 -0.2711
vn -0.0841 -0.1744 -0.9811
vn -0.0434 -0.0487 -0.9979
vn -0.0422 0.0472 -0.9980
vn 0.0710 -0.9926 0.0982
vn -0.9807 -0.0666 0.1837
vn 0.9317 -0.3477 0.1051
vn -0.0096 -0.1313 0.9913
vn 0.2776 0.9179 -0.2835
vn 0.2771 0.9182 0.2831
vn 0.9027 -0.3443 0.2579
vn 0.9055 0.3359 0.2594
vn 0.9052 0.3363 -0.2597
vn 0.9024 -0.3449 -0.2582
vn 0.3224 -0.9069 -0.2711
vn 0.0841 -0.1744 -0.9811
vn 0.0434 -0.0487 -0.9979
vn 0.0422 0.0472 -0.9980
vn -0.0710 -0.9926 0.0982
vn 0.9807 -0.0666 0.1837
vn -0.9317 -0.3477 0.1051
vn 0.0096 -0.1313 0.9913
vt 0.060577 0.489231
s 0
usemtl Material
f 120/4/97 109/4/97 119/4/97 121/4/97
f 121/4/98 119/4/98 111/4/98 117/4/98
f 112/4/99 115/4/99 122/4/99 113/4/99
f 115/4/100 111/4/100 119/4/100 122/4/100
f 122/4/101 119/4/101 109/4/101 116/4/101
f 113/4/102 122/4/102 116/4/102 110/4/102
f 110/4/103 114/4/103 123/4/103 113/4/103
f 113/4/104 123/4/104 128/4/104 125/4/104
f 110/4/105 116/4/105 124/4/105 114/4/105
f 116/4/106 109/4/106 120/4/106 124/4/106
f 125/4/107 128/4/107 127/4/107 126/4/107
f 112/4/108 113/4/108 125/4/108 126/4/108
f 123/4/109 118/4/109 127/4/109 128/4/109
f 118/4/110 112/4/110 126/4/110 127/4/110
f 120/4/111 121/4/111 136/4/111 129/4/111
f 121/4/112 117/4/112 131/4/112 136/4/112
f 132/4/113 133/4/113 137/4/113 134/4/113
f 134/4/114 137/4/114 136/4/114 131/4/114
f 137/4/115 135/4/115 129/4/115 136/4/115
f 133/4/116 130/4/116 135/4/116 137/4/116
f 130/4/117 133/4/117 123/4/117 114/4/117
f 133/4/118 138/4/118 141/4/118 123/4/118
f 130/4/119 114/4/119 124/4/119 135/4/119
f 135/4/120 124/4/120 120/4/120 129/4/120
f 138/4/121 139/4/121 140/4/121 141/4/121
f 132/4/122 139/4/122 138/4/122 133/4/122
f 123/4/123 141/4/123 140/4/123 118/4/123
f 118/4/124 140/4/124 139/4/124 132/4/124
o Cube.004
v -0.132638 0.793120 -1.847625
v -0.135266 0.522498 -1.847625
v -0.132638 0.793120 -1.594727
v -0.135266 0.522498 -1.594727
v -0.156206 0.500147 -1.721450
v 0.020151 0.476436 -1.851856
v -0.177129 0.652556 -1.591190
v -0.177129 0.652556 -1.851856
v 0.020151 0.828924 -1.591190
v 0.020151 0.476436 -1.591190
v -0.153577 0.816648 -1.721450
v 0.020151 0.828924 -1.851856
v 0.020151 0.878299 -1.721450
v -0.221073 0.652556 -1.721450
v 0.020151 0.429531 -1.721450
v 0.020151 0.652556 -1.860736
v 0.172940 0.793120 -1.847625
v 0.175568 0.522498 -1.847625
v 0.172940 0.793120 -1.594727
v 0.175568 0.522498 -1.594727
v 0.196508 0.500147 -1.721450
v 0.217431 0.652556 -1.591190
v 0.217431 0.652556 -1.851856
v 0.193879 0.816648 -1.721450
v 0.261375 0.652556 -1.721450
vn -0.2776 0.9179 -0.2835
vn -0.2771 0.9182 0.2831
vn -0.9027 -0.3443 0.2579
vn -0.9055 0.3359 0.2594
vn -0.9052 0.3363 -0.2597
vn -0.9024 -0.3449 -0.2582
vn -0.3224 -0.9069 -0.2711
vn -0.0434 -0.0487 -0.9979
vn -0.0422 0.0472 -0.9980
vn -0.3219 -0.9072 0.2707
vn 0.2776 0.9179 -0.2835
vn 0.2771 0.9182 0.2831
vn 0.9027 -0.3443 0.2579
vn 0.9055 0.3359 0.2594
vn 0.9052 0.3363 -0.2597
vn 0.9024 -0.3449 -0.2582
vn 0.3224 -0.9069 -0.2711
vn 0.0434 -0.0487 -0.9979
vn 0.0422 0.0472 -0.9980
vn 0.3219 -0.9072 0.2707
vt 0.162116 0.486154
s 0
usemtl Material
f 153/5/125 142/5/125 152/5/125 154/5/125
f 154/5/126 152/5/126 144/5/126 150/5/126
f 145/5/127 148/5/127 155/5/127 146/5/127
f 148/5/128 144/5/128 152/5/128 155/5/128
f 155/5/129 152/5/129 142/5/129 149/5/129
f 146/5/130 155/5/130 149/5/130 143/5/130
f 143/5/131 147/5/131 156/5/131 146/5/131
f 143/5/132 149/5/132 157/5/132 147/5/132
f 149/5/133 142/5/133 153/5/133 157/5/133
f 146/5/134 156/5/134 151/5/134 145/5/134
f 153/5/135 154/5/135 165/5/135 158/5/135
f 154/5/136 150/5/136 160/5/136 165/5/136
f 161/5/137 162/5/137 166/5/137 163/5/137
f 163/5/138 166/5/138 165/5/138 160/5/138
f 166/5/139 164/5/139 158/5/139 165/5/139
f 162/5/140 159/5/140 164/5/140 166/5/140
f 159/5/141 162/5/141 156/5/141 147/5/141
f 159/5/142 147/5/142 157/5/142 164/5/142
f 164/5/143 157/5/143 153/5/143 158/5/143
f 162/5/144 161/5/144 151/5/144 156/5/144
o Cylinder
v 0.574047 1.140263 0.861178
v 0.628508 1.160784 0.875771
v 0.589717 1.058883 0.917140
v 0.644177 1.079404 0.931733
v 0.563835 1.058883 1.013733
v 0.618295 1.079404 1.028326
v 0.522283 1.140263 1.054363
v 0.576744 1.160784 1.068956
v 0.506614 1.221643 0.998401
v 0.561074 1.242164 1.012993
v 0.532496 1.221643 0.901808
v 0.586956 1.242164 0.916401
v -0.533745 1.140263 0.861178
v -0.588205 1.160784 0.875771
v -0.549415 1.058883 0.917140
v -0.603875 1.079404 0.931733
v -0.523533 1.058883 1.013733
v -0.577993 1.079404 1.028326
v -0.481981 1.140263 1.054363
v -0.536442 1.160784 1.068956
v -0.466312 1.221643 0.998401
v -0.520772 1.242164 1.012993
v -0.492194 1.221643 0.901808
v -0.546654 1.242164 0.916401
vn 0.3893 -0.4698 -0.7923
vn 0.3304 -0.9397 0.0885
vn -0.0590 -0.4698 0.8808
vn -0.3893 0.4698 0.7923
vn 0.9077 0.3420 0.2432
vn -0.3304 0.9397 -0.0885
vn 0.0590 0.4698 -0.8808
vn -0.3893 -0.4698 -0.7923
vn -0.3304 -0.9397 0.0885
vn 0.0590 -0.4698 0.8808
vn 0.3893 0.4698 0.7923
vn -0.9077 0.3420 0.2432
vn 0.3304 0.9397 -0.0885
vn -0.0590 0.4698 -0.8808
vt 0.084615 0.021923
s 0
usemtl Material
f 167/6/145 168/6/145 170/6/145 169/6/145
f 169/6/146 170/6/146 172/6/146 171/6/146
f 171/6/147 172/6/147 174/6/147 173/6/147
f 173/6/148 174/6/148 176/6/148 175/6/148
f 170/6/149 168/6/149 178/6/149 176/6/149 174/6/149 172/6/149
f 175/6/150 176/6/150 178/6/150 177/6/150
f 177/6/151 178/6/151 168/6/151 167/6/151
f 179/6/152 181/6/152 182/6/152 180/6/152
f 181/6/153 183/6/153 184/6/153 182/6/153
f 183/6/154 185/6/154 186/6/154 184/6/154
f 185/6/155 187/6/155 188/6/155 186/6/155
f 182/6/156 184/6/156 186/6/156 188/6/156 190/6/156 180/6/156
f 187/6/157 189/6/157 190/6/157 188/6/157
f 189/6/158 179/6/158 180/6/158 190/6/158
