# Blender 3.6.1
# www.blender.org
mtllib barrier22.mtl
o Cube
v 3.187068 2.367280 -0.070000
v 3.277059 2.260033 -0.070000
v 3.187068 2.367280 0.070000
v 3.277059 2.260033 0.070000
v -1.408865 -1.489166 -0.070000
v -1.318874 -1.596412 -0.070000
v -1.408865 -1.489166 0.070000
v -1.318874 -1.596412 0.070000
vn -0.6428 0.7660 -0.0000
vn -0.0000 -0.0000 1.0000
vn -0.7660 -0.6428 -0.0000
vn 0.6428 -0.7660 -0.0000
vn 0.7660 0.6428 -0.0000
vn -0.0000 -0.0000 -1.0000
vt 0.943880 0.059997
s 0
usemtl Material.001
f 1/1/1 5/1/1 7/1/1 3/1/1
f 4/1/2 3/1/2 7/1/2 8/1/2
f 8/1/3 7/1/3 5/1/3 6/1/3
f 6/1/4 2/1/4 4/1/4 8/1/4
f 2/1/5 1/1/5 3/1/5 4/1/5
f 6/1/6 5/1/6 1/1/6 2/1/6
o Cube.003
v 2.830000 2.459913 -0.070000
v 2.970000 2.459913 -0.070000
v 2.830000 2.459913 0.070000
v 2.970000 2.459913 0.070000
v 2.830000 0.060087 -0.070000
v 2.970000 0.060087 -0.070000
v 2.830000 0.060087 0.070000
v 2.970000 0.060087 0.070000
vn -1.0000 -0.0000 -0.0000
vn -0.0000 -0.0000 1.0000
vn 1.0000 -0.0000 -0.0000
vn -0.0000 1.0000 -0.0000
vn -0.0000 -0.0000 -1.0000
vt 0.943880 0.059997
s 0
usemtl Material.001
f 9/2/7 13/2/7 15/2/7 11/2/7
f 12/2/8 11/2/8 15/2/8 16/2/8
f 14/2/9 10/2/9 12/2/9 16/2/9
f 10/2/10 9/2/10 11/2/10 12/2/10
f 14/2/11 13/2/11 9/2/11 10/2/11
