# Blender 3.5.1
# www.blender.org
mtllib DecoreWood_1.mtl
o Plane
v -0.040427 0.028291 0.691078
v 0.040427 0.025051 0.691242
v -0.042969 0.031084 0.452696
v 0.043321 0.031607 0.452614
v -0.042579 0.028230 0.322067
v 0.042931 0.031014 0.322181
v -0.038373 0.012738 -0.003951
v 0.038563 0.020389 -0.004234
v -0.037957 0.009746 -0.087842
v 0.037569 0.018631 -0.087825
v -0.029492 0.008447 -0.378725
v 0.029072 0.018707 -0.378918
v -0.028479 0.009686 -0.442148
v 0.027971 0.020283 -0.442412
v -0.011152 0.024974 -0.756202
v 0.011152 0.030586 -0.756202
v 0.398119 0.004646 0.356789
v 0.398013 0.010710 0.282671
v 0.709425 0.040513 0.123419
v 0.700160 0.040840 0.107189
v -0.374841 0.021315 0.375811
v -0.374766 0.032342 0.282437
v -0.693794 0.031371 0.187932
v -0.685520 0.027831 0.173428
v 0.268739 0.033996 -0.059655
v 0.252234 0.040036 -0.101758
v 0.457131 0.014356 -0.151828
v 0.452118 0.014425 -0.163779
v -0.264955 0.031664 -0.051856
v -0.264719 0.028640 -0.102504
v -0.487580 0.005265 -0.167212
v -0.482720 0.005118 -0.180381
v 0.165992 0.037891 -0.410596
v 0.152780 0.035088 -0.446419
v 0.295755 0.024888 -0.469217
v 0.289071 0.027540 -0.486408
v -0.179493 0.038752 -0.404537
v -0.168772 0.038842 -0.438193
v -0.306530 0.010749 -0.469813
v -0.299828 0.013605 -0.484126
v -0.206321 0.038459 0.306861
v -0.204241 0.042694 0.411567
v 0.215803 0.037624 0.402436
v 0.215803 0.041640 0.309422
v -0.455913 0.041692 0.328832
v -0.453676 0.034809 0.254867
v 0.475029 0.031848 0.238877
v 0.477492 0.026094 0.298575
v 0.635399 0.003502 0.179469
v 0.628012 0.003330 0.148971
v -0.611253 0.003330 0.200860
v -0.617850 0.008706 0.232930
vn 0.0162 0.9997 0.0196
vn -0.0192 0.9997 -0.0132
vn -0.0641 0.9971 -0.0399
vn -0.1078 0.9938 -0.0278
vn -0.1413 0.9900 -0.0021
vn -0.1783 0.9837 0.0219
vn -0.2013 0.9787 0.0397
vn -0.3756 0.9166 0.1369
vn 0.3312 0.9406 -0.0743
vn -0.0716 0.9965 0.0439
vn 0.1378 0.9888 0.0569
vn 0.0891 0.9950 -0.0441
vn -0.0879 0.9945 -0.0564
vn -0.1280 0.9918 0.0062
vn 0.0667 0.9974 -0.0279
vn 0.1978 0.9795 0.0373
vn -0.1973 0.9803 -0.0115
vn 0.0723 0.9969 -0.0306
vn -0.0453 0.9989 0.0154
vn 0.1838 0.9812 0.0591
vn -0.0870 0.9956 0.0350
vn 0.1883 0.9813 0.0402
vn 0.1293 0.9913 0.0263
vn -0.2066 0.9743 0.0900
vn -0.1394 0.9823 -0.1252
vt 0.544574 0.108504
vt 0.544574 0.108504
vt 0.544574 0.108504
vt 0.544574 0.108504
vt 0.544574 0.108504
vt 0.544574 0.108504
vt 0.544574 0.108504
vt 0.544574 0.108504
vt 0.544574 0.108504
vt 0.544574 0.108504
vt 0.544574 0.108504
vt 0.544574 0.108504
vt 0.544574 0.108504
vt 0.544574 0.108504
vt 0.544574 0.108504
vt 0.544574 0.108504
vt 0.544574 0.108504
vt 0.544574 0.108504
vt 0.544574 0.108504
vt 0.544574 0.108504
vt 0.544574 0.108504
vt 0.544574 0.108504
vt 0.544574 0.108504
vt 0.544574 0.108504
vt 0.544574 0.108504
vt 0.544574 0.108504
vt 0.544574 0.108504
vt 0.544574 0.108504
vt 0.544574 0.108504
vt 0.544574 0.108504
vt 0.544574 0.108504
vt 0.544574 0.108504
vt 0.544574 0.108504
vt 0.544574 0.108504
vt 0.544574 0.108504
vt 0.544574 0.108504
vt 0.544574 0.108504
vt 0.544574 0.108504
vt 0.544574 0.108504
vt 0.544574 0.108504
vt 0.544574 0.108504
vt 0.544574 0.108504
vt 0.544574 0.108504
vt 0.544574 0.108504
vt 0.544574 0.108504
vt 0.544574 0.108504
vt 0.544574 0.108504
vt 0.544574 0.108504
vt 0.544574 0.108504
vt 0.544574 0.108504
vt 0.544574 0.108504
vt 0.544574 0.108504
s 0
usemtl Material
f 1/1/1 2/2/1 4/4/1 3/3/1
f 3/3/2 4/4/2 6/6/2 5/5/2
f 5/5/3 6/6/3 8/8/3 7/7/3
f 7/7/4 8/8/4 10/10/4 9/9/4
f 9/9/5 10/10/5 12/12/5 11/11/5
f 11/11/6 12/12/6 14/14/6 13/13/6
f 13/13/7 14/14/7 16/16/7 15/15/7
f 50/50/8 49/49/8 19/19/8 20/20/8
f 52/52/9 51/51/9 24/24/9 23/23/9
f 10/10/10 8/8/10 25/25/10 26/26/10
f 26/26/11 25/25/11 27/27/11 28/28/11
f 7/7/12 9/9/12 30/30/12 29/29/12
f 29/29/13 30/30/13 32/32/13 31/31/13
f 14/14/14 12/12/14 33/33/14 34/34/14
f 34/34/15 33/33/15 35/35/15 36/36/15
f 11/11/16 13/13/16 38/38/16 37/37/16
f 37/37/17 38/38/17 40/40/17 39/39/17
f 3/3/18 5/5/18 41/41/18 42/42/18
f 6/6/19 4/4/19 43/43/19 44/44/19
f 18/18/20 44/44/20 43/43/20 17/17/20
f 21/21/21 42/42/21 41/41/21 22/22/21
f 50/50/22 47/47/22 48/48/22 49/49/22
f 21/21/23 22/22/23 46/46/23 45/45/23
f 18/18/24 17/17/24 48/48/24 47/47/24
f 52/52/25 45/45/25 46/46/25 51/51/25
