# Blender 3.6.0
# www.blender.org
mtllib Grass_1.mtl
o Plane
v -0.031462 0.000000 0.000000
v 0.031462 0.000000 0.000000
v -0.067311 0.479305 -1.578083
v 0.067311 0.479305 -1.578083
v -0.300000 0.595201 -0.766040
v 0.300000 0.595201 -0.766040
v -0.234552 0.383902 -0.405342
v 0.234552 0.383902 -0.405342
v 0.300000 0.613870 -1.158221
v -0.300000 0.613870 -1.158221
vn -0.0000 0.9523 -0.3052
vn -0.0000 0.8628 0.5055
vn -0.0000 0.7260 0.6876
vn -0.0000 0.9989 0.0475
vt 0.443788 0.360440
s 0
usemtl Material
f 10/1/1 9/1/1 4/1/1 3/1/1
f 7/1/2 8/1/2 6/1/2 5/1/2
f 1/1/3 2/1/3 8/1/3 7/1/3
f 5/1/4 6/1/4 9/1/4 10/1/4
o Plane.001
v -0.000000 0.000000 0.031462
v 0.000000 0.000000 -0.031462
v -1.578083 0.479305 0.067311
v -1.578083 0.479305 -0.067311
v -0.766040 0.595201 0.300000
v -0.766040 0.595201 -0.300000
v -0.405342 0.383902 0.234552
v -0.405342 0.383902 -0.234552
v -1.158221 0.613870 -0.300000
v -1.158221 0.613870 0.300000
vn -0.3052 0.9523 -0.0000
vn 0.5055 0.8628 -0.0000
vn 0.6876 0.7260 -0.0000
vn 0.0475 0.9989 -0.0000
vt 0.443788 0.360440
s 0
usemtl Material
f 20/2/5 19/2/5 14/2/5 13/2/5
f 17/2/6 18/2/6 16/2/6 15/2/6
f 11/2/7 12/2/7 18/2/7 17/2/7
f 15/2/8 16/2/8 19/2/8 20/2/8
o Plane.002
v 0.022247 0.000000 -0.022247
v -0.022247 0.000000 0.022247
v 1.163470 0.479305 1.068277
v 1.068278 0.479305 1.163469
v 0.753805 0.595201 0.329540
v 0.329541 0.595201 0.753804
v 0.452473 0.383902 0.120767
v 0.120767 0.383902 0.452473
v 0.606854 0.613870 1.031118
v 1.031118 0.613870 0.606853
vn 0.2158 0.9523 0.2158
vn -0.3574 0.8628 -0.3574
vn -0.4862 0.7260 -0.4862
vn -0.0336 0.9989 -0.0336
vt 0.443788 0.360440
s 0
usemtl Material
f 30/3/9 29/3/9 24/3/9 23/3/9
f 27/3/10 28/3/10 26/3/10 25/3/10
f 21/3/11 22/3/11 28/3/11 27/3/11
f 25/3/12 26/3/12 29/3/12 30/3/12
