# Blender 3.6.1
# www.blender.org
mtllib House_T.mtl
o Cylinder.031
v -18.180000 -0.382686 -25.275759
v 18.180000 -0.382681 -25.275759
v -18.180000 -0.923882 -24.734562
v 18.180000 -0.923877 -24.734564
v -18.180000 -0.923882 -23.969194
v 18.180000 -0.923877 -23.969196
v -18.180000 -0.382686 -23.427999
v 18.180000 -0.382681 -23.427999
v -18.180000 0.382681 -23.427999
v 18.180000 0.382686 -23.427999
v -18.180000 0.923877 -23.969194
v 18.180000 0.923882 -23.969196
v -18.180000 0.923877 -24.734562
v 18.180000 0.923882 -24.734564
v -18.180000 0.382681 -25.275759
v 18.180000 0.382686 -25.275759
v -15.523780 1.417315 -25.275757
v 15.523780 1.417319 -25.275759
v -15.523780 0.876119 -24.734562
v 15.523780 0.876123 -24.734562
v -15.523780 0.876119 -23.969194
v 15.523780 0.876123 -23.969194
v -15.523780 1.417315 -23.427998
v 15.523780 1.417319 -23.427999
v -15.523780 2.182682 -23.427998
v 15.523780 2.182686 -23.427999
v -15.523780 2.723878 -23.969194
v 15.523780 2.723882 -23.969194
v -15.523780 2.723878 -24.734562
v 15.523780 2.723882 -24.734562
v -15.523780 2.182682 -25.275757
v 15.523780 2.182686 -25.275759
v -13.253222 3.217314 -25.275757
v 13.253222 3.217318 -25.275759
v -13.253222 2.676118 -24.734562
v 13.253222 2.676121 -24.734562
v -13.253222 2.676118 -23.969194
v 13.253222 2.676121 -23.969194
v -13.253222 3.217314 -23.427999
v 13.253222 3.217318 -23.427999
v -13.253222 3.982681 -23.427998
v 13.253222 3.982684 -23.427999
v -13.253222 4.523877 -23.969194
v 13.253221 4.523880 -23.969194
v -13.253222 4.523878 -24.734562
v 13.253221 4.523880 -24.734562
v -13.253222 3.982681 -25.275757
v 13.253221 3.982684 -25.275759
v -10.308061 5.017316 -25.275757
v 10.308061 5.017319 -25.275757
v -10.308061 4.476120 -24.734560
v 10.308061 4.476123 -24.734562
v -10.308061 4.476120 -23.969194
v 10.308061 4.476122 -23.969194
v -10.308061 5.017316 -23.427998
v 10.308061 5.017319 -23.427998
v -10.308061 5.782682 -23.427998
v 10.308061 5.782685 -23.427998
v -10.308061 6.323878 -23.969194
v 10.308061 6.323881 -23.969194
v -10.308061 6.323879 -24.734560
v 10.308061 6.323882 -24.734562
v -10.308061 5.782682 -25.275757
v 10.308061 5.782685 -25.275757
v -7.215642 6.817316 -25.275757
v 7.215643 6.817317 -25.275759
v -7.215642 6.276120 -24.734562
v 7.215643 6.276122 -24.734562
v -7.215642 6.276120 -23.969194
v 7.215643 6.276122 -23.969194
v -7.215642 6.817316 -23.427998
v 7.215643 6.817318 -23.427999
v -7.215642 7.582683 -23.427998
v 7.215643 7.582685 -23.427999
v -7.215642 8.123879 -23.969194
v 7.215643 8.123881 -23.969194
v -7.215642 8.123878 -24.734562
v 7.215643 8.123880 -24.734562
v -7.215642 7.582683 -25.275757
v 7.215643 7.582685 -25.275759
v -2.886257 8.617315 -25.275757
v 2.886257 8.617315 -25.275757
v -2.886257 8.076118 -24.734562
v 2.886257 8.076118 -24.734562
v -2.886257 8.076118 -23.969194
v 2.886257 8.076118 -23.969194
v -2.886257 8.617314 -23.427998
v 2.886257 8.617314 -23.427999
v -2.886257 9.382682 -23.427998
v 2.886257 9.382682 -23.427998
v -2.886257 9.923877 -23.969194
v 2.886257 9.923877 -23.969194
v -2.886257 9.923878 -24.734562
v 2.886257 9.923878 -24.734562
v -2.886257 9.382681 -25.275757
v 2.886257 9.382681 -25.275757
v 19.734575 -1.630464 23.523251
v 20.859907 1.215416 23.425480
v 20.005341 -1.742176 -25.581566
v 21.130674 1.103703 -25.460077
v -0.012643 8.500455 -26.433477
v -0.012643 12.380990 -26.272932
v 20.932573 -0.786133 -26.303392
v 19.986561 -1.962084 0.000000
v 21.443338 1.768005 0.000000
v 20.661806 -0.674421 24.104134
v -0.012643 8.500452 24.208824
v -0.012643 12.380991 24.079624
v -0.012643 10.017948 -28.166613
v -0.012643 10.017949 25.603584
v -0.012643 8.178658 0.000000
v -0.012643 13.736300 0.000002
v 9.697348 3.701787 -26.170626
v 9.383945 7.596347 -26.020084
v 21.138645 -0.043931 -26.023890
v 20.659828 -1.242876 -26.106777
v 19.808897 -1.848661 12.982433
v 19.808895 -1.848660 -12.982431
v 21.154751 1.591859 -12.563407
v 21.154751 1.591859 12.563404
v 20.867882 0.067780 23.879211
v 20.389061 -1.131166 23.945911
v 9.697348 3.701787 23.997295
v 9.383943 7.596347 23.876141
v -0.012643 11.204125 -27.668839
v 10.303152 5.262711 -27.701790
v -0.012643 9.194350 -27.779213
v 10.303153 5.262709 25.229515
v -0.012643 11.204126 25.202999
v -0.012643 9.194350 25.291821
v -0.012643 8.219462 -14.264747
v 10.656433 3.370810 0.000000
v -0.012643 8.219460 14.264744
v -0.012643 13.336590 -13.706765
v -0.012643 13.336590 13.706764
v 10.239099 8.842640 0.000000
v 9.864598 6.459129 -27.264629
v 10.046212 4.415794 -27.368706
v 10.046213 4.415795 24.961475
v 9.864597 6.459129 24.877712
v 10.250120 3.413096 -13.721499
v 10.250123 3.413096 13.721504
v 9.856590 8.475392 -13.195344
v 9.856591 8.475393 13.195347
v 21.245140 -2.726035 21.162735
v 22.495741 -0.527442 21.067524
v 21.086782 -2.806598 -23.415155
v 22.337381 -0.608006 -23.296854
v 21.975624 -2.070107 -24.118046
v 21.447092 -2.936354 0.010946
v 22.980091 -0.229410 0.010946
v 22.133987 -1.989545 21.728378
v 22.918257 -2.267724 0.010946
v 22.273256 -1.290707 -23.845877
v 21.568783 -2.543962 -23.926592
v 21.331358 -2.859637 12.652821
v 21.331356 -2.859639 -12.630928
v 22.770227 -0.319049 -12.222894
v 22.770227 -0.319049 12.244785
v 22.431618 -1.210143 21.509354
v 21.727146 -2.463396 21.574310
v 22.680511 -2.186928 -13.419654
v 23.169067 -1.342862 0.010946
v 22.680511 -2.186927 13.441547
v 22.388325 -2.750733 0.010944
v 22.190058 -2.659980 -13.085134
v 22.932800 -1.321576 -12.848680
v 22.932802 -1.321576 12.870571
v 22.190060 -2.659981 13.107021
v -19.759857 -1.630467 23.523251
v -20.885191 1.215416 23.425476
v -20.030628 -1.742176 -25.581566
v -21.155962 1.103703 -25.460079
v -20.957861 -0.786133 -26.303394
v -20.011847 -1.962083 0.000000
v -21.468626 1.768005 0.000000
v -20.687090 -0.674422 24.104134
v -9.722632 3.701786 -26.170626
v -9.409229 7.596346 -26.020084
v -21.163933 -0.043931 -26.023891
v -20.685116 -1.242876 -26.106779
v -19.834181 -1.848661 12.982430
v -19.834183 -1.848661 -12.982433
v -21.180038 1.591859 -12.563405
v -21.180038 1.591858 12.563404
v -20.893164 0.067781 23.879208
v -20.414345 -1.131165 23.945908
v -9.722632 3.701787 23.997295
v -9.409230 7.596347 23.876141
v -10.328437 5.262710 -27.701790
v -10.328438 5.262708 25.229515
v -10.681719 3.370810 0.000002
v -10.264385 8.842641 0.000002
v -9.889883 6.459129 -27.264629
v -10.071497 4.415793 -27.368706
v -10.071499 4.415794 24.961472
v -9.889885 6.459128 24.877712
v -10.275405 3.413096 -13.721500
v -10.275406 3.413097 13.721500
v -9.881877 8.475392 -13.195345
v -9.881876 8.475392 13.195347
v -21.270424 -2.726037 21.162731
v -22.521023 -0.527442 21.067524
v -21.112070 -2.806598 -23.415157
v -22.362669 -0.608006 -23.296854
v -22.000912 -2.070107 -24.118048
v -21.472380 -2.936355 0.010944
v -23.005379 -0.229410 0.010944
v -22.159271 -1.989543 21.728374
v -22.943542 -2.267723 0.010946
v -22.298542 -1.290707 -23.845879
v -21.594070 -2.543962 -23.926592
v -21.356642 -2.859640 12.652821
v -21.356644 -2.859639 -12.630925
v -22.795515 -0.319049 -12.222893
v -22.795515 -0.319049 12.244785
v -22.456902 -1.210145 21.509350
v -21.752430 -2.463396 21.574306
v -22.705799 -2.186927 -13.419652
v -23.194355 -1.342862 0.010946
v -22.705795 -2.186927 13.441544
v -22.413610 -2.750731 0.010944
v -22.215345 -2.659980 -13.085132
v -22.958088 -1.321575 -12.848678
v -22.958086 -1.321575 12.870571
v -22.215343 -2.659980 13.107021
v -2.886257 8.617314 21.724239
v 2.886257 8.617314 21.724239
v -2.886256 8.076118 22.265438
v 2.886257 8.076118 22.265438
v -2.886256 8.076118 23.030804
v 2.886257 8.076118 23.030804
v -2.886257 8.617315 23.572002
v 2.886257 8.617315 23.572002
v -2.886257 9.382682 23.571999
v 2.886257 9.382682 23.571999
v -2.886257 9.923879 23.030804
v 2.886257 9.923879 23.030804
v -2.886257 9.923877 22.265438
v 2.886257 9.923877 22.265438
v -2.886257 9.382682 21.724239
v 2.886257 9.382682 21.724239
v -18.180000 -0.382685 21.724243
v 18.180000 -0.382681 21.724243
v -18.180000 -0.923882 22.265434
v 18.180000 -0.923877 22.265434
v -18.180000 -0.923880 23.030804
v 18.180000 -0.923876 23.030804
v -18.180000 -0.382685 23.571999
v 18.180000 -0.382681 23.571999
v -18.180000 0.382683 23.572002
v 18.180000 0.382687 23.572002
v -18.180000 0.923879 23.030804
v 18.180000 0.923884 23.030804
v -18.180000 0.923879 22.265438
v 18.180000 0.923884 22.265438
v -18.180000 0.382683 21.724239
v 18.180000 0.382687 21.724239
v -15.523780 1.417316 21.724239
v 15.523780 1.417320 21.724239
v -15.523780 0.876120 22.265438
v 15.523780 0.876123 22.265438
v -15.523780 0.876120 23.030804
v 15.523780 0.876123 23.030804
v -15.523780 1.417315 23.571999
v 15.523780 1.417318 23.571999
v -15.523780 2.182684 23.571999
v 15.523780 2.182688 23.571999
v -15.523780 2.723877 23.030804
v 15.523780 2.723881 23.030804
v -15.523780 2.723878 22.265438
v 15.523780 2.723882 22.265438
v -15.523780 2.182682 21.724243
v 15.523780 2.182686 21.724243
v -13.253221 3.217315 21.724239
v 13.253222 3.217318 21.724239
v -13.253221 2.676119 22.265438
v 13.253222 2.676122 22.265438
v -13.253221 2.676118 23.030804
v 13.253222 2.676121 23.030804
v -13.253221 3.217316 23.572002
v 13.253222 3.217319 23.572002
v -13.253221 3.982682 23.571999
v 13.253222 3.982686 23.571999
v -13.253221 4.523879 23.030804
v 13.253222 4.523881 23.030804
v -13.253221 4.523878 22.265438
v 13.253222 4.523880 22.265438
v -13.253221 3.982682 21.724239
v 13.253222 3.982685 21.724239
v -10.308060 5.017315 21.724239
v 10.308061 5.017318 21.724239
v -10.308060 4.476120 22.265434
v 10.308061 4.476122 22.265434
v -10.308060 4.476120 23.030804
v 10.308061 4.476123 23.030804
v -10.308060 5.017316 23.571999
v 10.308061 5.017319 23.571999
v -10.308061 5.782683 23.571999
v 10.308060 5.782686 23.571999
v -10.308061 6.323879 23.030804
v 10.308060 6.323882 23.030804
v -10.308061 6.323880 22.265434
v 10.308060 6.323883 22.265434
v -10.308061 5.782682 21.724239
v 10.308060 5.782685 21.724239
v -7.215642 6.817316 21.724239
v 7.215643 6.817318 21.724239
v -7.215642 6.276120 22.265438
v 7.215643 6.276122 22.265438
v -7.215642 6.276119 23.030804
v 7.215643 6.276121 23.030804
v -7.215642 6.817317 23.572002
v 7.215643 6.817319 23.572002
v -7.215642 7.582684 23.571999
v 7.215642 7.582685 23.571999
v -7.215642 8.123880 23.030804
v 7.215642 8.123882 23.030804
v -7.215642 8.123878 22.265438
v 7.215642 8.123880 22.265438
v -7.215642 7.582684 21.724239
v 7.215642 7.582685 21.724239
vn -0.0000 -0.7071 -0.7071
vn -0.0000 -0.7071 0.7071
vn -0.0000 -0.0000 1.0000
vn -0.0000 0.7071 0.7071
vn -0.0000 0.7071 -0.7071
vn -0.0000 -0.0000 -1.0000
vn 0.2225 0.3913 -0.8929
vn 0.3798 0.7289 -0.5696
vn 0.4024 0.6195 -0.6740
vn 0.3133 0.3621 -0.8779
vn -0.3669 -0.7917 -0.4885
vn -0.1359 -0.3747 -0.9171
vn -0.0753 -0.3489 -0.9341
vn -0.3055 -0.6857 -0.6606
vn 0.5099 -0.6207 -0.5956
vn 0.7792 0.6264 -0.0224
vn 0.8634 -0.1071 -0.4930
vn 0.7999 0.5992 -0.0347
vn 0.1695 -0.8317 0.5287
vn 0.9125 0.1918 -0.3614
vn -0.6209 -0.7839 -0.0041
vn 0.5118 -0.5849 0.6292
vn -0.5541 -0.8325 0.0002
vn 0.8121 -0.1011 0.5748
vn -0.5541 -0.8325 -0.0002
vn 0.8659 0.1982 0.4593
vn -0.5641 -0.8256 0.0105
vn 0.7612 0.6472 0.0412
vn 0.1047 -0.8526 -0.5119
vn 0.7790 0.6266 0.0224
vn -0.2750 -0.6162 0.7380
vn -0.0608 -0.2878 0.9558
vn -0.1126 -0.3103 0.9439
vn -0.3452 -0.7448 0.5711
vn 0.2664 0.3041 0.9146
vn 0.3633 0.5545 0.7486
vn 0.3501 0.6720 0.6526
vn 0.1859 0.3268 0.9266
vn -0.4330 -0.9013 -0.0111
vn -0.4740 -0.8805 -0.0071
vn -0.4894 -0.8721 0.0056
vn -0.4175 -0.9087 0.0034
vn -0.4175 -0.9087 -0.0034
vn -0.4894 -0.8721 -0.0056
vn -0.4752 -0.8798 0.0071
vn -0.4329 -0.9013 0.0136
vn 0.5034 0.8623 -0.0556
vn 0.4488 0.8907 -0.0727
vn 0.4367 0.8991 -0.0318
vn 0.5275 0.8490 -0.0317
vn 0.5275 0.8490 0.0317
vn 0.4367 0.8991 0.0318
vn 0.4486 0.8894 0.0876
vn 0.5045 0.8607 0.0681
vn 0.3130 -0.9495 -0.0200
vn 0.7105 -0.7018 -0.0513
vn 0.6809 -0.7322 -0.0159
vn 0.2072 -0.9783 -0.0089
vn 0.9557 -0.2877 -0.0621
vn 0.9944 0.0932 -0.0503
vn 0.9854 0.1690 -0.0180
vn 0.9641 -0.2651 -0.0184
vn 0.9641 -0.2651 0.0184
vn 0.9854 0.1690 0.0180
vn 0.9953 0.0865 0.0447
vn 0.9553 -0.2885 0.0644
vn 0.2072 -0.9783 0.0089
vn 0.6809 -0.7322 0.0159
vn 0.7091 -0.7026 0.0592
vn 0.3094 -0.9505 0.0285
vn -0.2225 0.3913 -0.8929
vn -0.3798 0.7289 -0.5696
vn -0.4024 0.6195 -0.6740
vn -0.3133 0.3621 -0.8779
vn 0.3669 -0.7917 -0.4885
vn 0.1359 -0.3747 -0.9171
vn 0.0753 -0.3489 -0.9341
vn 0.3055 -0.6857 -0.6606
vn -0.5099 -0.6207 -0.5956
vn -0.7792 0.6264 -0.0224
vn -0.8634 -0.1071 -0.4930
vn -0.7999 0.5992 -0.0347
vn -0.1695 -0.8317 0.5287
vn -0.9125 0.1918 -0.3614
vn 0.6209 -0.7839 -0.0041
vn -0.5118 -0.5849 0.6292
vn 0.5541 -0.8325 0.0002
vn -0.8121 -0.1011 0.5748
vn 0.5541 -0.8325 -0.0002
vn -0.8659 0.1982 0.4593
vn 0.5641 -0.8256 0.0105
vn -0.7612 0.6472 0.0412
vn -0.1047 -0.8526 -0.5119
vn -0.7790 0.6266 0.0224
vn 0.2750 -0.6162 0.7380
vn 0.0608 -0.2878 0.9558
vn 0.1126 -0.3103 0.9439
vn 0.3452 -0.7448 0.5711
vn -0.2664 0.3041 0.9146
vn -0.3633 0.5545 0.7486
vn -0.3501 0.6720 0.6526
vn -0.1859 0.3268 0.9266
vn 0.4330 -0.9013 -0.0111
vn 0.4740 -0.8805 -0.0071
vn 0.4894 -0.8721 0.0056
vn 0.4175 -0.9087 0.0034
vn 0.4175 -0.9087 -0.0034
vn 0.4894 -0.8721 -0.0056
vn 0.4752 -0.8798 0.0071
vn 0.4329 -0.9013 0.0136
vn -0.5034 0.8623 -0.0556
vn -0.4488 0.8907 -0.0727
vn -0.4367 0.8991 -0.0318
vn -0.5275 0.8490 -0.0317
vn -0.5275 0.8490 0.0317
vn -0.4367 0.8991 0.0318
vn -0.4486 0.8894 0.0876
vn -0.5045 0.8607 0.0681
vn -0.3130 -0.9495 -0.0200
vn -0.7105 -0.7018 -0.0513
vn -0.6809 -0.7322 -0.0159
vn -0.2072 -0.9783 -0.0089
vn -0.9557 -0.2877 -0.0621
vn -0.9944 0.0932 -0.0503
vn -0.9854 0.1690 -0.0180
vn -0.9641 -0.2651 -0.0184
vn -0.9641 -0.2651 0.0184
vn -0.9854 0.1690 0.0180
vn -0.9953 0.0865 0.0447
vn -0.9553 -0.2885 0.0644
vn -0.2072 -0.9783 0.0089
vn -0.6809 -0.7322 0.0159
vn -0.7092 -0.7026 0.0592
vn -0.3094 -0.9505 0.0285
vt 0.543077 0.146154
vt 0.801539 0.926539
s 0
usemtl Material
f 1/1/1 2/1/1 4/1/1 3/1/1
f 5/1/2 6/1/2 8/1/2 7/1/2
f 7/1/3 8/1/3 10/1/3 9/1/3
f 9/1/4 10/1/4 12/1/4 11/1/4
f 13/1/5 14/1/5 16/1/5 15/1/5
f 15/1/6 16/1/6 2/1/6 1/1/6
f 17/1/1 18/1/1 20/1/1 19/1/1
f 21/1/2 22/1/2 24/1/2 23/1/2
f 23/1/3 24/1/3 26/1/3 25/1/3
f 25/1/4 26/1/4 28/1/4 27/1/4
f 29/1/5 30/1/5 32/1/5 31/1/5
f 31/1/6 32/1/6 18/1/6 17/1/6
f 33/1/1 34/1/1 36/1/1 35/1/1
f 37/1/2 38/1/2 40/1/2 39/1/2
f 39/1/3 40/1/3 42/1/3 41/1/3
f 41/1/4 42/1/4 44/1/4 43/1/4
f 45/1/5 46/1/5 48/1/5 47/1/5
f 47/1/6 48/1/6 34/1/6 33/1/6
f 49/1/1 50/1/1 52/1/1 51/1/1
f 53/1/2 54/1/2 56/1/2 55/1/2
f 55/1/3 56/1/3 58/1/3 57/1/3
f 57/1/4 58/1/4 60/1/4 59/1/4
f 61/1/5 62/1/5 64/1/5 63/1/5
f 63/1/6 64/1/6 50/1/6 49/1/6
f 65/1/1 66/1/1 68/1/1 67/1/1
f 69/1/2 70/1/2 72/1/2 71/1/2
f 71/1/3 72/1/3 74/1/3 73/1/3
f 73/1/4 74/1/4 76/1/4 75/1/4
f 77/1/5 78/1/5 80/1/5 79/1/5
f 79/1/6 80/1/6 66/1/6 65/1/6
f 81/1/1 82/1/1 84/1/1 83/1/1
f 85/1/2 86/1/2 88/1/2 87/1/2
f 87/1/3 88/1/3 90/1/3 89/1/3
f 89/1/4 90/1/4 92/1/4 91/1/4
f 93/1/5 94/1/5 96/1/5 95/1/5
f 95/1/6 96/1/6 82/1/6 81/1/6
f 109/2/7 125/2/7 137/2/7 126/2/7
f 125/2/8 102/2/8 114/2/8 137/2/8
f 137/2/9 114/2/9 100/2/9 115/2/9
f 126/2/10 137/2/10 115/2/10 103/2/10
f 101/2/11 127/2/11 138/2/11 113/2/11
f 127/2/12 109/2/12 126/2/12 138/2/12
f 138/2/13 126/2/13 103/2/13 116/2/13
f 113/2/14 138/2/14 116/2/14 99/2/14
f 116/2/15 103/2/15 149/2/15 155/2/15
f 119/2/16 105/2/16 151/2/16 158/2/16
f 103/2/17 115/2/17 154/2/17 149/2/17
f 100/2/18 119/2/18 158/2/18 148/2/18
f 122/2/19 97/2/19 145/2/19 161/2/19
f 115/2/20 100/2/20 148/2/20 154/2/20
f 118/2/21 99/2/21 147/2/21 157/2/21
f 106/2/22 122/2/22 161/2/22 152/2/22
f 104/2/23 118/2/23 157/2/23 150/2/23
f 121/2/24 106/2/24 152/2/24 160/2/24
f 117/2/25 104/2/25 150/2/25 156/2/25
f 98/2/26 121/2/26 160/2/26 146/2/26
f 97/2/27 117/2/27 156/2/27 145/2/27
f 120/2/28 98/2/28 146/2/28 159/2/28
f 99/2/29 116/2/29 155/2/29 147/2/29
f 105/2/30 120/2/30 159/2/30 151/2/30
f 97/2/31 122/2/31 139/2/31 123/2/31
f 122/2/32 106/2/32 128/2/32 139/2/32
f 139/2/33 128/2/33 110/2/33 130/2/33
f 123/2/34 139/2/34 130/2/34 107/2/34
f 106/2/35 121/2/35 140/2/35 128/2/35
f 121/2/36 98/2/36 124/2/36 140/2/36
f 140/2/37 124/2/37 108/2/37 129/2/37
f 128/2/38 140/2/38 129/2/38 110/2/38
f 101/2/39 113/2/39 141/2/39 131/2/39
f 113/2/40 99/2/40 118/2/40 141/2/40
f 141/2/41 118/2/41 104/2/41 132/2/41
f 131/2/42 141/2/42 132/2/42 111/2/42
f 111/2/43 132/2/43 142/2/43 133/2/43
f 132/2/44 104/2/44 117/2/44 142/2/44
f 142/2/45 117/2/45 97/2/45 123/2/45
f 133/2/46 142/2/46 123/2/46 107/2/46
f 100/2/47 114/2/47 143/2/47 119/2/47
f 114/2/48 102/2/48 134/2/48 143/2/48
f 143/2/49 134/2/49 112/2/49 136/2/49
f 119/2/50 143/2/50 136/2/50 105/2/50
f 105/2/51 136/2/51 144/2/51 120/2/51
f 136/2/52 112/2/52 135/2/52 144/2/52
f 144/2/53 135/2/53 108/2/53 124/2/53
f 120/2/54 144/2/54 124/2/54 98/2/54
f 147/2/55 155/2/55 166/2/55 157/2/55
f 155/2/56 149/2/56 162/2/56 166/2/56
f 166/2/57 162/2/57 153/2/57 165/2/57
f 157/2/58 166/2/58 165/2/58 150/2/58
f 149/2/59 154/2/59 167/2/59 162/2/59
f 154/2/60 148/2/60 158/2/60 167/2/60
f 167/2/61 158/2/61 151/2/61 163/2/61
f 162/2/62 167/2/62 163/2/62 153/2/62
f 153/2/63 163/2/63 168/2/63 164/2/63
f 163/2/64 151/2/64 159/2/64 168/2/64
f 168/2/65 159/2/65 146/2/65 160/2/65
f 164/2/66 168/2/66 160/2/66 152/2/66
f 150/2/67 165/2/67 169/2/67 156/2/67
f 165/2/68 153/2/68 164/2/68 169/2/68
f 169/2/69 164/2/69 152/2/69 161/2/69
f 156/2/70 169/2/70 161/2/70 145/2/70
f 109/2/71 190/2/71 194/2/71 125/2/71
f 125/2/72 194/2/72 179/2/72 102/2/72
f 194/2/73 180/2/73 173/2/73 179/2/73
f 190/2/74 174/2/74 180/2/74 194/2/74
f 101/2/75 178/2/75 195/2/75 127/2/75
f 127/2/76 195/2/76 190/2/76 109/2/76
f 195/2/77 181/2/77 174/2/77 190/2/77
f 178/2/78 172/2/78 181/2/78 195/2/78
f 181/2/79 212/2/79 206/2/79 174/2/79
f 184/2/80 215/2/80 208/2/80 176/2/80
f 174/2/81 206/2/81 211/2/81 180/2/81
f 173/2/82 205/2/82 215/2/82 184/2/82
f 187/2/83 218/2/83 202/2/83 170/2/83
f 180/2/84 211/2/84 205/2/84 173/2/84
f 183/2/85 214/2/85 204/2/85 172/2/85
f 177/2/86 209/2/86 218/2/86 187/2/86
f 175/2/87 207/2/87 214/2/87 183/2/87
f 186/2/88 217/2/88 209/2/88 177/2/88
f 182/2/89 213/2/89 207/2/89 175/2/89
f 171/2/90 203/2/90 217/2/90 186/2/90
f 170/2/91 202/2/91 213/2/91 182/2/91
f 185/2/92 216/2/92 203/2/92 171/2/92
f 172/2/93 204/2/93 212/2/93 181/2/93
f 176/2/94 208/2/94 216/2/94 185/2/94
f 170/2/95 188/2/95 196/2/95 187/2/95
f 187/2/96 196/2/96 191/2/96 177/2/96
f 196/2/97 130/2/97 110/2/97 191/2/97
f 188/2/98 107/2/98 130/2/98 196/2/98
f 177/2/99 191/2/99 197/2/99 186/2/99
f 186/2/100 197/2/100 189/2/100 171/2/100
f 197/2/101 129/2/101 108/2/101 189/2/101
f 191/2/102 110/2/102 129/2/102 197/2/102
f 101/2/103 131/2/103 198/2/103 178/2/103
f 178/2/104 198/2/104 183/2/104 172/2/104
f 198/2/105 192/2/105 175/2/105 183/2/105
f 131/2/106 111/2/106 192/2/106 198/2/106
f 111/2/107 133/2/107 199/2/107 192/2/107
f 192/2/108 199/2/108 182/2/108 175/2/108
f 199/2/109 188/2/109 170/2/109 182/2/109
f 133/2/110 107/2/110 188/2/110 199/2/110
f 173/2/111 184/2/111 200/2/111 179/2/111
f 179/2/112 200/2/112 134/2/112 102/2/112
f 200/2/113 193/2/113 112/2/113 134/2/113
f 184/2/114 176/2/114 193/2/114 200/2/114
f 176/2/115 185/2/115 201/2/115 193/2/115
f 193/2/116 201/2/116 135/2/116 112/2/116
f 201/2/117 189/2/117 108/2/117 135/2/117
f 185/2/118 171/2/118 189/2/118 201/2/118
f 204/2/119 214/2/119 223/2/119 212/2/119
f 212/2/120 223/2/120 219/2/120 206/2/120
f 223/2/121 222/2/121 210/2/121 219/2/121
f 214/2/122 207/2/122 222/2/122 223/2/122
f 206/2/123 219/2/123 224/2/123 211/2/123
f 211/2/124 224/2/124 215/2/124 205/2/124
f 224/2/125 220/2/125 208/2/125 215/2/125
f 219/2/126 210/2/126 220/2/126 224/2/126
f 210/2/127 221/2/127 225/2/127 220/2/127
f 220/2/128 225/2/128 216/2/128 208/2/128
f 225/2/129 217/2/129 203/2/129 216/2/129
f 221/2/130 209/2/130 217/2/130 225/2/130
f 207/2/131 213/2/131 226/2/131 222/2/131
f 222/2/132 226/2/132 221/2/132 210/2/132
f 226/2/133 218/2/133 209/2/133 221/2/133
f 213/2/134 202/2/134 218/2/134 226/2/134
f 227/1/1 228/1/1 230/1/1 229/1/1
f 231/1/2 232/1/2 234/1/2 233/1/2
f 233/1/3 234/1/3 236/1/3 235/1/3
f 235/1/4 236/1/4 238/1/4 237/1/4
f 239/1/5 240/1/5 242/1/5 241/1/5
f 241/1/6 242/1/6 228/1/6 227/1/6
f 243/1/1 244/1/1 246/1/1 245/1/1
f 247/1/2 248/1/2 250/1/2 249/1/2
f 249/1/3 250/1/3 252/1/3 251/1/3
f 251/1/4 252/1/4 254/1/4 253/1/4
f 255/1/5 256/1/5 258/1/5 257/1/5
f 257/1/6 258/1/6 244/1/6 243/1/6
f 259/1/1 260/1/1 262/1/1 261/1/1
f 263/1/2 264/1/2 266/1/2 265/1/2
f 265/1/3 266/1/3 268/1/3 267/1/3
f 267/1/4 268/1/4 270/1/4 269/1/4
f 271/1/5 272/1/5 274/1/5 273/1/5
f 273/1/6 274/1/6 260/1/6 259/1/6
f 275/1/1 276/1/1 278/1/1 277/1/1
f 279/1/2 280/1/2 282/1/2 281/1/2
f 281/1/3 282/1/3 284/1/3 283/1/3
f 283/1/4 284/1/4 286/1/4 285/1/4
f 287/1/5 288/1/5 290/1/5 289/1/5
f 289/1/6 290/1/6 276/1/6 275/1/6
f 291/1/1 292/1/1 294/1/1 293/1/1
f 295/1/2 296/1/2 298/1/2 297/1/2
f 297/1/3 298/1/3 300/1/3 299/1/3
f 299/1/4 300/1/4 302/1/4 301/1/4
f 303/1/5 304/1/5 306/1/5 305/1/5
f 305/1/6 306/1/6 292/1/6 291/1/6
f 307/1/1 308/1/1 310/1/1 309/1/1
f 311/1/2 312/1/2 314/1/2 313/1/2
f 313/1/3 314/1/3 316/1/3 315/1/3
f 315/1/4 316/1/4 318/1/4 317/1/4
f 319/1/5 320/1/5 322/1/5 321/1/5
f 321/1/6 322/1/6 308/1/6 307/1/6
