# Blender 3.6.1
# www.blender.org
mtllib plate.mtl
o Cube
v 0.200000 2.000000 -0.200000
v 0.200000 0.000000 -0.200000
v 0.200000 2.000000 0.200000
v 0.200000 0.000000 0.200000
v -0.200000 2.000000 -0.200000
v -0.200000 0.000000 -0.200000
v -0.200000 2.000000 0.200000
v -0.200000 0.000000 0.200000
v 0.200000 2.000000 -2.000000
v 0.200000 2.000000 2.000000
v -0.200000 2.000000 -2.000000
v -0.200000 2.000000 2.000000
v 0.200000 4.608766 -2.000000
v 0.200000 4.608766 2.000000
v -0.200000 4.608766 -2.000000
v -0.200000 4.608766 2.000000
vn -1.0000 -0.0000 -0.0000
vn -0.0000 -0.0000 1.0000
vn -0.0000 -1.0000 -0.0000
vn 1.0000 -0.0000 -0.0000
vn -0.0000 -0.0000 -1.0000
vn -0.0000 1.0000 -0.0000
vt 0.818462 0.024615
s 0
usemtl Material
f 5/1/1 7/1/1 12/1/1 11/1/1
f 4/1/2 3/1/2 7/1/2 8/1/2
f 8/1/1 7/1/1 5/1/1 6/1/1
f 6/1/3 2/1/3 4/1/3 8/1/3
f 2/1/4 1/1/4 3/1/4 4/1/4
f 6/1/5 5/1/5 1/1/5 2/1/5
f 11/1/1 12/1/1 16/1/1 15/1/1
f 3/1/4 1/1/4 9/1/4 10/1/4
f 1/1/3 5/1/3 11/1/3 9/1/3
f 7/1/3 3/1/3 10/1/3 12/1/3
f 13/1/6 15/1/6 16/1/6 14/1/6
f 12/1/2 10/1/2 14/1/2 16/1/2
f 9/1/5 11/1/5 15/1/5 13/1/5
f 10/1/4 9/1/4 13/1/4 14/1/4
