# Blender 3.6.2
# www.blender.org
mtllib Tree 1.mtl
o Cone
v 0.000000 28.237307 -5.791321
v 2.895660 28.237307 -5.015431
v 5.015429 28.237307 -2.895662
v 5.791319 28.237307 -0.000002
v 5.015429 28.237307 2.895658
v 2.895660 28.237307 5.015427
v 0.000000 28.237307 5.791317
v -2.895660 28.237307 5.015427
v -5.015429 28.237307 2.895658
v -5.791319 28.237307 -0.000002
v -5.015429 28.237307 -2.895662
v -2.895660 28.237307 -5.015431
v 0.000000 32.803253 -0.000002
vn 0.1637 0.7747 -0.6108
vn 0.4471 0.7747 -0.4471
vn 0.6108 0.7747 -0.1637
vn 0.6108 0.7747 0.1637
vn 0.4471 0.7747 0.4471
vn 0.1637 0.7747 0.6108
vn -0.1637 0.7747 0.6108
vn -0.4471 0.7747 0.4471
vn -0.6108 0.7747 0.1637
vn -0.6108 0.7747 -0.1637
vn -0.0000 -1.0000 -0.0000
vn -0.4471 0.7747 -0.4471
vn -0.1637 0.7747 -0.6108
vt 0.312410 0.406923
s 0
usemtl Material.001
f 1/1/1 13/1/1 2/1/1
f 2/1/2 13/1/2 3/1/2
f 3/1/3 13/1/3 4/1/3
f 4/1/4 13/1/4 5/1/4
f 5/1/5 13/1/5 6/1/5
f 6/1/6 13/1/6 7/1/6
f 7/1/7 13/1/7 8/1/7
f 8/1/8 13/1/8 9/1/8
f 9/1/9 13/1/9 10/1/9
f 10/1/10 13/1/10 11/1/10
f 1/1/11 2/1/11 3/1/11 4/1/11 5/1/11 6/1/11 7/1/11 8/1/11 9/1/11 10/1/11 11/1/11 12/1/11
f 11/1/12 13/1/12 12/1/12
f 12/1/13 13/1/13 1/1/13
o Cone.001
v 2.426640 23.446819 -9.056346
v 6.629704 23.446819 -6.629706
v 9.056344 23.446819 -2.426642
v 9.056344 23.446819 2.426638
v 6.629704 23.446819 6.629702
v 2.426640 23.446819 9.056342
v -2.426640 23.446819 9.056342
v -6.629704 23.446819 6.629702
v -9.056344 23.446819 2.426638
v -9.056344 23.446819 -2.426642
v -6.629704 23.446819 -6.629706
v -2.426640 23.446819 -9.056346
v 0.000000 30.838829 -0.000002
vn 0.3162 0.7747 -0.5476
vn 0.5476 0.7747 -0.3162
vn 0.6323 0.7747 -0.0000
vn 0.5476 0.7747 0.3162
vn 0.3162 0.7747 0.5476
vn -0.0000 0.7747 0.6323
vn -0.3162 0.7747 0.5476
vn -0.5476 0.7747 0.3162
vn -0.6323 0.7747 -0.0000
vn -0.5476 0.7747 -0.3162
vn -0.0000 -1.0000 -0.0000
vn -0.3162 0.7747 -0.5476
vn -0.0000 0.7747 -0.6323
vt 0.312410 0.406923
s 0
usemtl Material.001
f 14/2/14 26/2/14 15/2/14
f 15/2/15 26/2/15 16/2/15
f 16/2/16 26/2/16 17/2/16
f 17/2/17 26/2/17 18/2/17
f 18/2/18 26/2/18 19/2/18
f 19/2/19 26/2/19 20/2/19
f 20/2/20 26/2/20 21/2/20
f 21/2/21 26/2/21 22/2/21
f 22/2/22 26/2/22 23/2/22
f 23/2/23 26/2/23 24/2/23
f 14/2/24 15/2/24 16/2/24 17/2/24 18/2/24 19/2/24 20/2/24 21/2/24 22/2/24 23/2/24 24/2/24 25/2/24
f 24/2/25 26/2/25 25/2/25
f 25/2/26 26/2/26 14/2/26
o Cylinder
v 0.000000 1.000000 -1.319025
v 0.000000 24.531965 -0.651166
v 0.775303 1.000000 -1.067114
v 0.382745 24.531965 -0.526805
v 1.254467 1.000000 -0.407601
v 0.619294 24.531965 -0.201223
v 1.254467 1.000000 0.407601
v 0.619294 24.531965 0.201219
v 0.775303 1.000000 1.067114
v 0.382745 24.531965 0.526801
v 0.000000 1.000000 1.319025
v 0.000000 24.531965 0.651162
v -0.775303 1.000000 1.067114
v -0.382745 24.531965 0.526801
v -1.254467 1.000000 0.407601
v -0.619294 24.531965 0.201219
v -1.254467 1.000000 -0.407601
v -0.619294 24.531965 -0.201223
v -0.775303 1.000000 -1.067114
v -0.382745 24.531965 -0.526805
v 0.211749 13.320935 -1.222816
v 0.759267 13.034306 -1.044917
v 1.097653 13.320935 -0.579169
v 1.050122 13.118801 0.061946
v 0.711737 13.118801 0.527693
v 0.324934 13.164460 0.771409
v -0.280669 13.071398 0.541077
v -0.708271 13.258570 -0.043251
v -0.606947 13.118801 -0.513749
v -0.383301 13.118801 -0.979497
v 0.000000 19.343958 -0.867231
v 0.509745 19.343958 -0.701605
v 0.709001 19.343958 -0.267990
v 0.709001 19.343958 0.267988
v 0.393962 19.343958 0.701603
v 0.000000 19.343958 0.867229
v -0.509745 19.343958 0.701603
v -0.824785 19.343958 0.267988
v -0.824785 19.343958 -0.267990
v -0.509745 19.343958 -0.701605
v 0.546763 5.674479 -0.819458
v 0.910034 5.133956 -0.319458
v 0.862926 5.133957 0.511611
v 0.474460 5.177412 0.988764
v -0.086338 5.011091 1.197155
v -0.552921 5.294439 0.976674
v -0.992079 6.669843 0.214206
v -0.992079 6.553790 -0.319459
v -0.628808 6.615863 -0.747294
v -0.041022 6.723447 -1.010442
v 0.456512 6.723447 -0.861810
v 0.819783 6.182924 -0.361809
v 0.819783 6.182924 0.256225
v 0.629459 5.931258 0.923800
v -0.028922 6.416346 1.073326
v -0.628808 6.010506 0.917220
v -0.992079 8.081472 0.298575
v -0.992079 8.481083 -0.319459
v -0.628808 8.030264 -0.819459
v -1.562126 7.577738 -0.156049
v -1.562126 7.577738 -0.504679
v -1.357207 7.577738 -0.786727
v -1.562126 8.169456 -0.156049
v -1.562126 8.437319 -0.504679
v -1.357207 8.169456 -0.786727
v -2.632378 8.696333 -0.670831
v -2.629364 8.731386 -0.846214
v -2.545339 8.694454 -0.999749
v -2.440941 8.926748 -0.621489
v -2.338434 8.971518 -0.793220
v -2.353902 8.924870 -0.950407
v -3.071806 9.545782 -0.989963
v -3.070927 9.556005 -1.041114
v -3.046421 9.545234 -1.085893
v -3.015973 9.612984 -0.975573
v -2.986077 9.626040 -1.025658
v -2.990588 9.612434 -1.071502
v 0.759267 14.516957 -1.044917
v 1.097653 14.244829 -0.579169
v 1.050122 14.121039 0.061946
v 0.711737 14.121039 0.527693
v 0.252039 14.093688 0.744039
v -0.285192 14.285163 0.547317
v -0.659546 14.175897 0.014886
v -0.606947 14.121039 -0.513749
v -0.383301 14.121039 -0.979497
v 0.211749 14.244829 -1.222816
v 1.100245 14.564511 -1.514232
v 1.221516 13.756589 -1.681146
v 1.355811 14.358239 -1.241513
v 1.422603 13.913262 -1.333444
v 0.828692 13.913262 -1.764946
v 0.761900 14.358239 -1.673015
v 1.782952 15.020585 -2.453898
v 1.923639 14.629466 -2.647537
v 1.944151 14.900780 -2.332363
v 2.021636 14.685364 -2.439013
v 1.695038 14.685364 -2.676301
v 1.617552 14.900780 -2.569650
v 2.283386 15.868587 -3.142686
v 2.393400 15.657105 -3.294107
v 2.390250 15.795547 -3.078273
v 2.450842 15.679070 -3.161671
v 2.249695 15.679070 -3.307813
v 2.189103 15.795547 -3.224415
v 2.500961 16.300524 -3.442151
v 2.567314 16.238935 -3.533479
v 2.556096 16.270903 -3.421733
v 2.592642 16.236982 -3.472034
v 2.501050 16.236982 -3.538580
v 2.464504 16.270903 -3.488279
v 0.324422 5.225567 0.979912
v -0.086338 5.079826 1.165751
v -0.483633 5.342594 0.970195
v 0.560169 5.884535 0.925199
v -0.028918 6.339761 1.054831
v -0.559520 5.963782 0.918619
v 0.271921 5.260376 0.954786
v -0.086339 5.130229 1.121739
v -0.431134 5.377402 0.945070
v 0.507669 5.847454 0.906042
v -0.028916 6.280055 1.020599
v -0.507021 5.926702 0.899463
v 0.220978 5.292871 0.914982
v -0.086339 5.177855 1.063608
v -0.380191 5.409898 0.905265
v 0.456726 5.810192 0.872029
v -0.028913 6.220837 0.971960
v -0.456078 5.889440 0.865450
v 0.000000 30.254734 -0.241633
v 0.142027 30.254734 -0.195486
v 0.229805 30.254734 -0.074670
v 0.229805 30.254734 0.074666
v 0.142027 30.254734 0.195482
v 0.000000 30.254734 0.241629
v -0.142027 30.254734 0.195482
v -0.229805 30.254734 0.074666
v -0.229805 30.254734 -0.074670
v -0.142027 30.254734 -0.195486
vn 0.3088 0.0396 -0.9503
vn 0.8669 0.0297 -0.4976
vn 0.9999 0.0173 -0.0000
vn 0.8088 0.0215 0.5876
vn 0.3495 0.0356 0.9362
vn -0.3088 0.0396 0.9503
vn -0.8084 0.0396 0.5873
vn -0.9992 0.0396 -0.0000
vn -0.3083 0.0679 0.9489
vn -0.8084 0.0396 -0.5873
vn -0.3088 0.0396 -0.9503
vn -0.8466 0.0355 -0.5311
vn -0.9950 0.0636 -0.0774
vn -0.3282 0.0630 0.9425
vn 0.3675 0.0351 0.9294
vn 0.9064 -0.0024 0.4223
vn 0.9989 -0.0351 0.0321
vn 0.8013 -0.0523 -0.5959
vn 0.2875 -0.0417 -0.9569
vn -0.3513 0.0459 -0.9351
vn -0.8579 -0.0025 -0.5138
vn -0.9983 -0.0345 -0.0475
vn -0.8099 -0.0541 0.5841
vn -0.3334 -0.0408 0.9419
vn 0.4085 -0.0037 0.9127
vn 0.8087 0.0296 0.5875
vn 0.9966 0.0681 0.0474
vn 0.8665 0.0881 -0.4913
vn 0.2892 0.0806 -0.9539
vn 0.2862 -0.0141 -0.9581
vn 0.8230 0.0750 -0.5630
vn 0.9957 0.0880 0.0285
vn 0.7944 0.0643 0.6039
vn 0.3212 0.0383 0.9462
vn -0.3495 0.0297 0.9365
vn -0.9989 0.0467 -0.0040
vn -0.7909 0.0512 -0.6098
vn -0.4010 -0.0467 -0.9149
vn 0.3493 0.0591 -0.9351
vn 0.8327 0.0494 -0.5516
vn 0.9972 0.0680 0.0324
vn 0.8902 0.0256 0.4548
vn -0.1810 0.3987 0.8991
vn 0.0821 -0.1820 0.9799
vn -0.8131 0.0561 0.5794
vn -0.6049 -0.0335 0.7956
vn -0.0226 -0.0359 -0.9991
vn -0.3566 -0.0146 -0.9341
vn 0.3570 0.7680 0.5317
vn -0.4161 0.0424 0.9084
vn -0.8674 -0.4933 0.0649
vn -0.2758 0.7910 0.5462
vn -0.6572 -0.4941 -0.5692
vn 0.1296 0.7752 -0.6183
vn -0.8026 -0.5049 -0.3178
vn 0.7310 0.6312 -0.2593
vn -0.7179 -0.6943 -0.0506
vn 0.6105 0.7446 -0.2699
vn -0.6198 -0.7016 -0.3516
vn 0.1834 0.0163 -0.9829
vn -0.6927 0.7198 -0.0450
vn -0.6229 0.7100 -0.3284
vn 0.2168 0.0289 -0.9758
vn -0.3971 0.1356 0.9077
vn 0.5241 0.6939 0.4937
vn -0.8646 -0.4896 -0.1127
vn -0.6542 0.0189 -0.7561
vn 0.3375 0.8904 0.3054
vn 0.9973 -0.0000 0.0739
vn 0.8090 -0.0000 0.5878
vn 0.4778 0.0305 0.8779
vn -0.9870 0.0298 -0.1579
vn -0.9015 -0.0000 -0.4329
vn -0.3785 -0.0000 -0.9256
vn 0.1672 0.8393 0.5174
vn 0.8684 0.0412 0.4941
vn 0.9212 0.0189 0.3886
vn 0.7612 -0.6278 -0.1627
vn -0.3947 0.8904 -0.2267
vn -0.0805 -0.6278 -0.7742
vn -0.0139 -0.5293 -0.8483
vn -0.7019 0.6523 0.2861
vn -0.7383 0.0412 -0.6732
vn 0.7058 -0.6995 -0.1122
vn -0.5437 0.8393 0.0009
vn -0.1114 -0.6995 -0.7059
vn -0.7614 0.0802 -0.6433
vn -0.0474 0.5908 0.8054
vn 0.8374 0.0360 0.5454
vn -0.0551 0.6523 0.7560
vn -0.7775 0.0360 -0.6278
vn 0.8111 -0.5293 -0.2489
vn 0.0177 0.8349 -0.5501
vn 0.5177 0.8349 -0.1868
vn 0.8589 -0.3951 -0.3259
vn -0.7514 0.5908 0.2940
vn 0.0445 -0.3951 -0.9176
vn 0.8471 0.0802 0.5253
vn -0.3503 -0.0034 0.9366
vn -0.8123 -0.0008 0.5833
vn -0.1140 -0.1990 0.9733
vn 0.0356 0.0867 0.9956
vn -0.0332 0.0935 0.9951
vn 0.1754 0.5143 0.8395
vn -0.1370 -0.4204 0.8969
vn -0.3831 0.2195 0.8972
vn 0.1017 0.6638 0.7409
vn 0.0921 -0.4422 0.8922
vn 0.0309 0.6182 0.7854
vn 0.3878 0.1261 0.9131
vn 0.2254 -0.5625 0.7955
vn 0.1800 0.7134 0.6773
vn 0.5845 0.1524 0.7969
vn -0.2759 -0.5372 0.7971
vn 0.0122 0.7770 0.6294
vn -0.5679 0.3059 0.7641
vn 0.0047 0.0510 0.9987
vn -0.3567 0.0550 -0.9326
vn -0.9016 -0.0372 0.4310
vn -0.7605 0.0771 0.6447
vn -0.0000 1.0000 -0.0000
vn 0.3083 0.0679 0.9489
vn 0.8071 0.0679 0.5864
vn 0.3083 0.0679 -0.9489
vn 0.9977 0.0679 -0.0000
vn 0.8071 0.0679 -0.5864
vn -0.3083 0.0679 -0.9489
vn -0.8071 0.0679 -0.5864
vn -0.9977 0.0679 -0.0000
vn -0.8071 0.0679 0.5864
vt 0.797911 0.027605
vt 0.799610 0.034068
vt 0.798337 0.034103
vt 0.796216 0.027651
vt 0.778750 0.027924
vt 0.777804 0.034519
vt 0.776837 0.034507
vt 0.777418 0.027910
vt 0.775530 0.034497
vt 0.775678 0.027896
vt 0.774384 0.034491
vt 0.774151 0.027889
vt 0.809165 0.027385
vt 0.808670 0.033833
vt 0.807551 0.033759
vt 0.808042 0.027298
vt 0.806239 0.033759
vt 0.806295 0.027298
vt 0.805236 0.033833
vt 0.804959 0.027396
vt 0.816606 0.018927
vt 0.816300 0.025528
vt 0.815065 0.025531
vt 0.814962 0.018931
vt 0.806877 0.040937
vt 0.806390 0.040937
vt 0.813799 0.025535
vt 0.813276 0.018936
vt 0.799520 0.027503
vt 0.800818 0.033992
vt 0.814721 0.005112
vt 0.813806 0.011016
vt 0.812125 0.011021
vt 0.812765 0.004545
vt 0.816606 0.004599
vt 0.815367 0.011189
vt 0.808916 0.011294
vt 0.809385 0.019738
vt 0.807289 0.019634
vt 0.806915 0.010782
vt 0.810921 0.010804
vt 0.810428 0.019792
vt 0.776596 0.011157
vt 0.776872 0.019980
vt 0.775232 0.019972
vt 0.774373 0.010822
vt 0.778602 0.011174
vt 0.778959 0.020253
vt 0.780053 0.011880
vt 0.780361 0.019906
vt 0.793810 0.011812
vt 0.795280 0.020149
vt 0.793362 0.019839
vt 0.792159 0.011859
vt 0.797415 0.021025
vt 0.795593 0.021307
vt 0.813831 0.012291
vt 0.812150 0.012296
vt 0.815514 0.012356
vt 0.807204 0.021128
vt 0.805610 0.021115
vt 0.809074 0.020885
vt 0.810365 0.021028
vt 0.776809 0.021255
vt 0.775168 0.021247
vt 0.778900 0.021428
vt 0.780266 0.021791
vt 0.793864 0.021697
vt 0.791500 0.010551
vt 0.781205 0.004602
vt 0.780017 0.010543
vt 0.778566 0.009838
vt 0.779245 0.004578
vt 0.775850 0.009816
vt 0.776599 0.004556
vt 0.774151 0.009864
vt 0.774276 0.004545
vt 0.811803 0.004695
vt 0.810526 0.009840
vt 0.808917 0.009519
vt 0.809536 0.004545
vt 0.807247 0.009889
vt 0.806879 0.004545
vt 0.816928 0.015513
vt 0.817803 0.008300
vt 0.819440 0.008447
vt 0.819429 0.015513
vt 0.821163 0.008367
vt 0.821993 0.015512
vt 0.795610 0.011548
vt 0.796107 0.013332
vt 0.791822 0.004699
vt 0.789243 0.004769
vt 0.808888 0.009613
vt 0.807459 0.009957
vt 0.808906 0.011205
vt 0.810705 0.010739
vt 0.805177 0.011769
vt 0.804847 0.004695
vt 0.819692 0.015638
vt 0.822623 0.016919
vt 0.821336 0.017624
vt 0.820110 0.017072
vt 0.798306 0.012655
vt 0.798506 0.013396
vt 0.797076 0.019769
vt 0.821870 0.018021
vt 0.820997 0.019227
vt 0.820656 0.019190
vt 0.819692 0.019140
vt 0.818292 0.007147
vt 0.819362 0.007147
vt 0.823412 0.017553
vt 0.820458 0.007146
vt 0.821681 0.023277
vt 0.819692 0.023864
vt 0.819692 0.022921
vt 0.820839 0.022587
vt 0.819767 0.005729
vt 0.819201 0.005682
vt 0.819297 0.004635
vt 0.819463 0.004648
vt 0.820708 0.021542
vt 0.820199 0.021547
vt 0.820862 0.020632
vt 0.821011 0.020631
vt 0.818659 0.005727
vt 0.802591 0.013918
vt 0.802035 0.014226
vt 0.819140 0.004648
vt 0.819158 0.004562
vt 0.819346 0.004545
vt 0.820799 0.020539
vt 0.820672 0.020576
vt 0.804525 0.014926
vt 0.804363 0.015016
vt 0.820603 0.020414
vt 0.820322 0.020399
vt 0.816928 0.020998
vt 0.817426 0.021137
vt 0.817073 0.021993
vt 0.816928 0.021952
vt 0.816928 0.015638
vt 0.819370 0.016330
vt 0.818493 0.017046
vt 0.817107 0.016825
vt 0.824333 0.008267
vt 0.825747 0.008264
vt 0.825615 0.008922
vt 0.824662 0.008856
vt 0.822003 0.020692
vt 0.823250 0.020539
vt 0.823250 0.021658
vt 0.822525 0.021734
vt 0.781141 0.021587
vt 0.781493 0.021022
vt 0.785260 0.022025
vt 0.784871 0.022297
vt 0.782555 0.020835
vt 0.822315 0.008264
vt 0.823315 0.008922
vt 0.793624 0.021071
vt 0.792276 0.020917
vt 0.790551 0.022274
vt 0.791318 0.022315
vt 0.790023 0.023746
vt 0.789546 0.023737
vt 0.822070 0.021531
vt 0.822317 0.023088
vt 0.822047 0.022969
vt 0.817741 0.018622
vt 0.816928 0.018591
vt 0.785903 0.021961
vt 0.825602 0.009787
vt 0.824874 0.009866
vt 0.818047 0.020142
vt 0.818545 0.020127
vt 0.819143 0.020836
vt 0.818938 0.020872
vt 0.822774 0.023048
vt 0.822368 0.023740
vt 0.822154 0.023749
vt 0.787705 0.023302
vt 0.787404 0.023449
vt 0.788115 0.023279
vt 0.817747 0.021800
vt 0.817747 0.021710
vt 0.817942 0.021674
vt 0.817942 0.021837
vt 0.818102 0.021713
vt 0.818102 0.021803
vt 0.788921 0.024023
vt 0.788731 0.024018
vt 0.818824 0.020137
vt 0.819281 0.020827
vt 0.789458 0.024520
vt 0.789243 0.024531
vt 0.788552 0.024060
vt 0.805468 0.019997
vt 0.807139 0.010731
vt 0.810040 0.009888
vt 0.933324 0.051161
vt 0.937357 0.074404
vt 0.935619 0.073467
vt 0.931462 0.052031
vt 0.911848 0.047885
vt 0.911943 0.049823
vt 0.902219 0.057289
vt 0.903475 0.057986
vt 0.918673 0.083254
vt 0.918387 0.081225
vt 0.902903 0.071935
vt 0.904575 0.070973
vt 0.918030 0.079217
vt 0.933851 0.072518
vt 0.904615 0.058622
vt 0.906116 0.070001
vt 0.929576 0.052836
vt 0.911956 0.051664
vt 0.794268 0.004545
vt 0.823151 0.004545
vt 0.823559 0.005443
vt 0.823559 0.008139
vt 0.822315 0.006406
vt 0.805154 0.013484
vt 0.819099 0.021273
vt 0.818890 0.021444
vt 0.818503 0.021549
vt 0.818085 0.021549
vt 0.817797 0.021444
vt 0.817747 0.021273
vt 0.817956 0.021103
vt 0.818344 0.020998
vt 0.818762 0.020998
vt 0.819050 0.021103
vt 0.807292 0.040964
vt 0.775429 0.041783
vt 0.775004 0.041781
vt 0.801439 0.041169
vt 0.800967 0.041182
vt 0.775914 0.041787
vt 0.776273 0.041791
vt 0.801887 0.041141
vt 0.815157 0.032812
vt 0.814687 0.032813
vt 0.815615 0.032811
vt 0.806018 0.040964
s 0
usemtl Material.001
f 57/3/27 28/4/27 30/5/27 58/6/27
f 58/7/28 30/8/28 32/9/28 59/10/28
f 59/10/29 32/9/29 34/11/29 60/12/29
f 60/12/30 34/11/30 36/13/30 61/14/30
f 61/15/31 36/16/31 38/17/31 62/18/31
f 62/18/32 38/17/32 40/19/32 63/20/32
f 63/20/33 40/19/33 42/21/33 64/22/33
f 64/23/34 42/24/34 44/25/34 65/26/34
f 40/19/35 38/17/35 161/27/35 162/28/35
f 65/26/36 44/25/36 46/29/36 66/30/36
f 66/31/37 46/32/37 28/4/37 57/3/37
f 84/33/38 55/34/38 56/35/38 85/36/38
f 83/37/39 54/38/39 55/34/39 84/33/39
f 81/39/40 52/40/40 53/41/40 82/42/40
f 80/43/41 51/44/41 52/40/41 81/39/41
f 79/45/42 50/46/42 51/47/42 80/48/42
f 78/49/43 49/50/43 50/46/43 79/45/43
f 77/51/44 48/52/44 49/50/44 78/49/44
f 76/53/45 47/54/45 48/55/45 77/56/45
f 112/57/46 66/31/46 57/3/46 113/58/46
f 111/59/47 65/26/47 66/30/47 112/60/47
f 110/61/48 64/23/48 65/26/48 111/59/48
f 109/62/49 63/20/49 64/22/49 110/63/49
f 108/64/50 62/18/50 63/20/50 109/62/50
f 107/65/51 61/15/51 62/18/51 108/64/51
f 106/66/52 60/12/52 61/14/52 107/67/52
f 105/68/53 59/10/53 60/12/53 106/66/53
f 104/69/54 58/7/54 59/10/54 105/68/54
f 113/58/55 57/3/55 58/6/55 104/70/55
f 77/56/56 67/71/56 76/53/56
f 29/72/57 67/73/57 68/74/57 31/75/57
f 31/75/58 68/74/58 69/76/58 33/77/58
f 33/77/59 69/76/59 70/78/59 35/79/59
f 35/80/60 70/81/60 71/82/60 37/83/60
f 37/83/61 71/82/61 72/84/61 39/85/61
f 41/86/62 73/87/62 74/88/62 43/89/62
f 43/89/63 74/88/63 75/90/63 45/91/63
f 76/53/64 75/92/64 85/93/64
f 27/94/65 76/53/65 67/71/65 29/95/65
f 67/73/66 77/51/66 78/49/66 68/74/66
f 68/74/67 78/49/67 79/45/67 69/76/67
f 69/76/68 79/45/68 80/48/68 70/78/68
f 72/84/69 71/82/69 139/96/69 140/97/69
f 80/43/70 81/39/70 142/98/70 141/99/70
f 39/85/71 72/84/71 73/100/71 41/101/71
f 73/102/72 83/103/72 89/104/72 86/105/72
f 85/93/73 75/92/73 88/106/73 91/107/73
f 76/53/74 85/93/74 56/108/74 47/54/74
f 89/104/75 90/109/75 96/110/75 95/111/75
f 86/105/76 89/104/76 95/111/76 92/112/76
f 74/88/77 73/87/77 86/113/77 87/114/77
f 83/103/78 84/115/78 90/109/78 89/104/78
f 75/90/79 74/88/79 87/114/79 88/116/79
f 84/117/80 85/118/80 91/119/80 90/120/80
f 94/121/81 93/122/81 99/123/81 100/124/81
f 96/125/82 97/126/82 103/127/82 102/128/82
f 87/114/83 86/113/83 92/129/83 93/122/83
f 90/120/84 91/119/84 97/126/84 96/125/84
f 88/116/85 87/114/85 93/122/85 94/121/85
f 91/107/86 88/106/86 94/130/86 97/131/86
f 98/132/87 101/133/87 102/134/87 99/123/87
f 99/135/88 102/128/88 103/127/88 100/136/88
f 97/131/89 94/130/89 100/137/89 103/138/89
f 92/112/90 95/111/90 101/139/90 98/140/90
f 95/141/91 96/142/91 102/143/91 101/144/91
f 93/122/92 92/129/92 98/132/92 99/123/92
f 47/145/93 113/146/93 119/147/93 118/148/93
f 104/149/94 105/150/94 116/151/94 114/152/94
f 49/50/95 105/68/95 106/66/95 50/46/95
f 50/46/96 106/66/96 107/67/96 51/47/96
f 51/44/97 107/65/97 108/64/97 52/40/97
f 54/38/98 110/61/98 111/59/98 55/34/98
f 55/34/99 111/59/99 112/60/99 56/35/99
f 56/108/100 112/57/100 113/58/100 47/54/100
f 114/153/101 116/154/101 122/155/101 120/156/101
f 116/157/102 117/158/102 123/159/102 122/160/102
f 105/68/103 49/50/103 117/158/103 116/157/103
f 49/50/104 48/52/104 115/161/104 117/158/104
f 113/162/105 104/149/105 114/152/105 119/163/105
f 48/55/106 47/54/106 118/164/106 115/165/106
f 121/166/107 124/167/107 130/168/107 127/169/107
f 125/170/108 120/156/108 126/171/108 131/172/108
f 118/148/109 119/147/109 125/173/109 124/174/109
f 117/158/110 115/161/110 121/175/110 123/159/110
f 119/163/111 114/152/111 120/176/111 125/177/111
f 115/165/112 118/164/112 124/167/112 121/166/112
f 130/178/113 131/179/113 137/180/113 136/181/113
f 126/171/114 128/182/114 134/183/114 132/184/114
f 122/160/115 123/159/115 129/185/115 128/186/115
f 120/156/116 122/155/116 128/182/116 126/171/116
f 124/174/117 125/173/117 131/179/117 130/178/117
f 123/159/118 121/175/118 127/187/118 129/185/118
f 136/188/119 137/189/119 132/190/119 133/191/119
f 133/191/120 132/190/120 134/192/120 135/193/120
f 129/185/121 127/187/121 133/194/121 135/195/121
f 131/179/122 126/196/122 132/197/122 137/180/122
f 127/169/123 130/168/123 136/198/123 133/199/123
f 128/186/124 129/185/124 135/195/124 134/200/124
f 108/64/125 109/62/125 53/41/125 52/40/125
f 110/63/126 54/201/126 53/41/126 109/62/126
f 81/39/127 82/42/127 143/202/127 142/98/127
f 82/42/128 72/84/128 140/97/128 143/202/128
f 70/81/129 80/43/129 141/99/129 138/203/129
f 71/82/130 70/81/130 138/203/130 139/96/130
f 141/204/131 142/205/131 148/206/131 147/207/131
f 138/208/132 141/204/132 147/207/132 144/209/132
f 139/210/133 138/208/133 144/209/133 145/211/133
f 142/205/134 143/212/134 149/213/134 148/206/134
f 140/214/135 139/210/135 145/211/135 146/215/135
f 143/212/136 140/214/136 146/215/136 149/213/136
f 148/206/137 149/213/137 155/216/137 154/217/137
f 146/215/138 145/211/138 151/218/138 152/219/138
f 149/213/139 146/215/139 152/219/139 155/216/139
f 147/207/140 148/206/140 154/217/140 153/220/140
f 145/211/141 144/209/141 150/221/141 151/218/141
f 144/209/142 147/207/142 153/220/142 150/221/142
f 150/221/143 153/220/143 154/217/143 155/216/143 152/219/143 151/218/143
f 75/92/144 76/53/144 27/94/144 45/222/144
f 72/223/145 82/224/145 83/225/145 73/226/145
f 54/201/146 83/227/146 82/42/146 53/41/146
f 157/228/147 156/229/147 165/230/147 164/231/147 163/232/147 162/233/147 161/234/147 160/235/147 159/236/147 158/237/147
f 38/17/148 36/16/148 160/238/148 161/27/148
f 36/13/149 34/11/149 159/239/149 160/240/149
f 30/5/150 28/4/150 156/241/150 157/242/150
f 34/11/151 32/9/151 158/243/151 159/239/151
f 32/9/152 30/8/152 157/244/152 158/243/152
f 28/4/153 46/32/153 165/245/153 156/241/153
f 46/29/154 44/25/154 164/246/154 165/247/154
f 44/25/155 42/24/155 163/248/155 164/246/155
f 42/21/156 40/19/156 162/28/156 163/249/156
