# Blender 3.6.2
# www.blender.org
mtllib Rock.mtl
o Cube
v -4.032614 0.015388 4.032614
v -3.811154 0.615388 3.811154
v -4.032614 0.015388 -4.032614
v -3.811154 0.615388 -3.811154
v 4.032614 0.015388 4.032614
v 3.811154 0.615388 3.811154
v 4.032614 0.015388 -4.032614
v 3.811154 0.615388 -3.811154
v -4.087220 0.315388 4.087220
v -4.087220 0.315388 -4.087220
v 4.087220 0.315388 -4.087220
v 4.087220 0.315388 4.087220
vn -0.7359 0.6771 -0.0000
vn -0.0000 0.6771 -0.7359
vn 0.7359 0.6771 -0.0000
vn -0.0000 0.6771 0.7359
vn -0.0000 -1.0000 -0.0000
vn -0.0000 1.0000 -0.0000
vn -0.0000 -0.1791 0.9838
vn 0.9838 -0.1791 -0.0000
vn -0.0000 -0.1791 -0.9838
vn -0.9838 -0.1791 -0.0000
vt 0.166452 0.321099
vt 0.017823 0.310857
vt 0.017823 0.028066
vt 0.166452 0.017823
vt 0.499016 0.321099
vt 0.350388 0.310857
vt 0.350388 0.028066
vt 0.499016 0.017823
vt 0.166452 0.660022
vt 0.017823 0.649780
vt 0.017823 0.366988
vt 0.166452 0.356746
vt 0.499016 0.660022
vt 0.350388 0.649780
vt 0.350388 0.366988
vt 0.499016 0.356746
vt 0.982177 0.317048
vt 0.682952 0.317048
vt 0.682952 0.017823
vt 0.982177 0.017823
vt 0.965744 0.639538
vt 0.682952 0.639538
vt 0.682952 0.356746
vt 0.965744 0.356746
vt 0.647306 0.657996
vt 0.647306 0.358772
vt 0.314741 0.657996
vt 0.314741 0.358772
vt 0.647306 0.319073
vt 0.647306 0.019849
vt 0.314741 0.319073
vt 0.314741 0.019849
s 0
f 9/1/1 2/2/1 4/3/1 10/4/1
f 10/5/2 4/6/2 8/7/2 11/8/2
f 11/9/3 8/10/3 6/11/3 12/12/3
f 12/13/4 6/14/4 2/15/4 9/16/4
f 3/17/5 7/18/5 5/19/5 1/20/5
f 8/21/6 4/22/6 2/23/6 6/24/6
f 5/25/7 12/13/7 9/16/7 1/26/7
f 7/27/8 11/9/8 12/12/8 5/28/8
f 3/29/9 10/5/9 11/8/9 7/30/9
f 1/31/10 9/1/10 10/4/10 3/32/10
