# Blender 3.5.1
# www.blender.org
mtllib tump.mtl
o Cylinder.001
v 0.000000 1.000000 -1.319025
v 0.775303 1.000000 -1.067114
v 1.254467 1.000000 -0.407601
v 1.254467 1.000000 0.407601
v 0.775303 1.000000 1.067114
v 0.000000 1.000000 1.319025
v -0.775303 1.000000 1.067114
v -1.254467 1.000000 0.407601
v -1.254467 1.000000 -0.407601
v -0.775303 1.000000 -1.067114
v 0.000000 -1.127996 -1.966730
v 1.156015 -1.127996 -1.591118
v 1.870471 -1.127996 -0.607753
v 1.870471 -1.127996 0.607753
v 1.156015 -1.127996 1.591118
v 0.000000 -1.127996 1.966730
v -1.156015 -1.127996 1.591118
v -1.870471 -1.127996 0.607753
v -1.870471 -1.127996 -0.607753
v -1.156015 -1.127996 -1.591118
vn 0.2968 0.2781 0.9136
vn -0.0000 -1.0000 -0.0000
vn 0.7771 0.2781 0.5646
vn 0.2968 0.2781 -0.9136
vn 0.9606 0.2781 -0.0000
vn 0.7771 0.2781 -0.5646
vn -0.2968 0.2781 -0.9136
vn -0.7771 0.2781 -0.5646
vn -0.9606 0.2781 -0.0000
vn -0.7771 0.2781 0.5646
vn -0.2968 0.2781 0.9136
vn -0.0000 1.0000 -0.0000
vt 0.801538 0.016923
vt 0.801538 0.016923
vt 0.801538 0.016923
vt 0.801538 0.016923
vt 0.801538 0.016923
vt 0.801538 0.016923
vt 0.801538 0.016923
vt 0.801538 0.016923
vt 0.801538 0.016923
vt 0.801538 0.016923
vt 0.801538 0.016923
vt 0.801538 0.016923
vt 0.801538 0.016923
vt 0.801538 0.016923
vt 0.801538 0.016923
vt 0.801538 0.016923
vt 0.801538 0.016923
vt 0.801538 0.016923
vt 0.801538 0.016923
vt 0.801538 0.016923
s 0
usemtl Material.001
f 5/5/1 6/6/1 16/16/1 15/15/1
f 11/11/2 12/12/2 13/13/2 14/14/2 15/15/2 16/16/2 17/17/2 18/18/2 19/19/2 20/20/2
f 4/4/3 5/5/3 15/15/3 14/14/3
f 1/1/4 2/2/4 12/12/4 11/11/4
f 3/3/5 4/4/5 14/14/5 13/13/5
f 2/2/6 3/3/6 13/13/6 12/12/6
f 10/10/7 1/1/7 11/11/7 20/20/7
f 9/9/8 10/10/8 20/20/8 19/19/8
f 8/8/9 9/9/9 19/19/9 18/18/9
f 7/7/10 8/8/10 18/18/10 17/17/10
f 6/6/11 7/7/11 17/17/11 16/16/11
f 1/1/12 10/10/12 9/9/12 8/8/12 7/7/12 6/6/12 5/5/12 4/4/12 3/3/12 2/2/12
