# Blender 3.6.0
# www.blender.org
mtllib Busket.mtl
o Cylinder
v 0.000000 0.027163 -0.687725
v 0.000000 1.059401 -0.920763
v 0.404235 0.027163 -0.556382
v 0.541211 1.059401 -0.744913
v 0.654066 0.027163 -0.212519
v 0.875697 1.059401 -0.284531
v -0.654066 0.027163 -0.212519
v -0.875697 1.059401 -0.284531
v -0.404235 0.027163 -0.556381
v -0.541211 1.059401 -0.744913
v 0.000000 1.342734 -0.787283
v 0.462753 1.342734 -0.636925
v 0.748750 1.342734 -0.243284
v -0.748750 1.342734 -0.243284
v -0.462753 1.342734 -0.636925
v 0.000000 0.229238 -0.692849
v 0.407247 0.229238 -0.560527
v 0.658939 0.229238 -0.214102
v -0.658939 0.229238 -0.214102
v -0.407247 0.229238 -0.560527
v 0.209969 0.028934 -0.646218
v 0.284404 1.059401 -0.875306
v 0.000000 0.523970 -0.907715
v 0.533542 0.523970 -0.734357
v 0.549706 0.028934 -0.399384
v 0.744579 1.059401 -0.540969
v 0.863289 0.523970 -0.280499
v 0.679473 0.028934 0.000000
v 0.920351 1.059401 0.000000
v -0.679473 0.028934 0.000000
v -0.920351 1.059401 0.000000
v -0.863289 0.523970 -0.280499
v -0.549706 0.028934 -0.399384
v -0.744579 1.059401 -0.540969
v -0.533542 0.523970 -0.734357
v -0.209969 0.028934 -0.646218
v -0.284404 1.059401 -0.875306
v 0.243175 1.342734 -0.748415
v 0.636640 1.342734 -0.462546
v 0.786931 1.342734 0.000000
v -0.786931 1.342734 0.000000
v -0.636640 1.342734 -0.462546
v -0.243175 1.342734 -0.748415
v 0.000000 1.342734 -0.889610
v 0.522899 1.342734 -0.719709
v 0.846069 1.342734 -0.274905
v -0.522899 1.342734 -0.719710
v -0.846069 1.342734 -0.274905
v 0.215336 0.224469 -0.662737
v 0.563758 0.224469 -0.409594
v 0.696843 0.224469 0.000000
v -0.696843 0.224469 0.000000
v -0.563758 0.224469 -0.409594
v -0.215336 0.224469 -0.662737
v -0.743832 0.508406 -0.241686
v -0.459713 0.508406 -0.632741
v 0.743832 0.508406 -0.241686
v 0.000000 0.508406 -0.782111
v 0.459713 0.508406 -0.632741
v 0.278376 0.513167 -0.856754
v 0.728798 0.513167 -0.529503
v 0.900844 0.513167 0.000000
v -0.900844 0.513167 0.000000
v -0.728798 0.513167 -0.529503
v -0.278376 0.513167 -0.856754
v 0.000000 -0.011740 0.000000
v -0.627972 0.502894 -0.456248
v 0.274782 1.342734 -0.845691
v 0.889212 1.342734 0.000000
v 0.719388 1.342734 -0.522666
v -0.274782 1.342734 -0.845691
v -0.719387 1.342734 -0.522666
v -0.889212 1.342734 0.000000
v 0.000000 0.155608 0.000000
v 0.776216 0.502894 0.000000
v -0.239864 0.502894 -0.738225
v 0.239864 0.502894 -0.738225
v -0.776216 0.502894 0.000000
v 0.627972 0.502894 -0.456248
v 0.067452 1.513592 -0.728895
v -0.067452 1.513592 -0.728895
v 0.076220 1.523468 -0.845691
v -0.076220 1.523468 -0.845691
v 0.067452 1.768105 -0.626017
v -0.067452 1.768105 -0.626017
v 0.076219 1.836243 -0.702109
v -0.076220 1.836243 -0.702109
v 0.067452 1.965847 -0.410865
v -0.067453 1.965847 -0.410865
v 0.076219 2.053145 -0.458996
v -0.076220 2.053145 -0.458996
v 0.067452 2.099098 -0.191006
v -0.067453 2.099098 -0.191006
v 0.076219 2.195833 -0.201241
v -0.076220 2.195833 -0.201241
v 0.067452 2.116971 -0.023832
v -0.067453 2.116971 -0.023832
v 0.076219 2.214230 -0.025597
v -0.076220 2.214230 -0.025597
v 0.000000 0.027163 0.687725
v 0.000000 1.059401 0.920763
v 0.404235 0.027163 0.556382
v 0.541211 1.059401 0.744913
v 0.654066 0.027163 0.212519
v 0.875697 1.059401 0.284531
v -0.654066 0.027163 0.212519
v -0.875697 1.059401 0.284531
v -0.404235 0.027163 0.556381
v -0.541211 1.059401 0.744913
v 0.000000 1.342734 0.787283
v 0.462753 1.342734 0.636925
v 0.748750 1.342734 0.243284
v -0.748750 1.342734 0.243284
v -0.462753 1.342734 0.636925
v 0.000000 0.229238 0.692849
v 0.407247 0.229238 0.560527
v 0.658939 0.229238 0.214102
v -0.658939 0.229238 0.214102
v -0.407247 0.229238 0.560527
v 0.209969 0.028934 0.646218
v 0.284404 1.059401 0.875306
v 0.000000 0.523970 0.907715
v 0.533542 0.523970 0.734357
v 0.549706 0.028934 0.399384
v 0.744579 1.059401 0.540969
v 0.863289 0.523970 0.280499
v -0.863289 0.523970 0.280499
v -0.549706 0.028934 0.399384
v -0.744579 1.059401 0.540969
v -0.533542 0.523970 0.734357
v -0.209969 0.028934 0.646218
v -0.284404 1.059401 0.875306
v 0.243175 1.342734 0.748415
v 0.636640 1.342734 0.462546
v -0.636640 1.342734 0.462546
v -0.243175 1.342734 0.748415
v 0.000000 1.342734 0.889610
v 0.522899 1.342734 0.719709
v 0.846069 1.342734 0.274905
v -0.522899 1.342734 0.719710
v -0.846069 1.342734 0.274905
v 0.215336 0.224469 0.662737
v 0.563758 0.224469 0.409594
v -0.563758 0.224469 0.409594
v -0.215336 0.224469 0.662737
v -0.743832 0.508406 0.241686
v -0.459713 0.508406 0.632741
v 0.743832 0.508406 0.241686
v 0.000000 0.508406 0.782111
v 0.459713 0.508406 0.632741
v 0.278376 0.513167 0.856754
v 0.728798 0.513167 0.529503
v -0.728798 0.513167 0.529503
v -0.278376 0.513167 0.856754
v -0.627972 0.502894 0.456248
v 0.274782 1.342734 0.845691
v 0.719388 1.342734 0.522666
v -0.274782 1.342734 0.845691
v -0.719387 1.342734 0.522666
v -0.239864 0.502894 0.738225
v 0.239864 0.502894 0.738225
v 0.627972 0.502894 0.456248
v 0.067452 1.513592 0.728895
v -0.067452 1.513592 0.728895
v 0.076220 1.523468 0.845691
v -0.076220 1.523468 0.845691
v 0.067452 1.768105 0.626017
v -0.067452 1.768105 0.626017
v 0.076219 1.836243 0.702109
v -0.076220 1.836243 0.702109
v 0.067452 1.965847 0.410865
v -0.067453 1.965847 0.410865
v 0.076219 2.053145 0.458996
v -0.076220 2.053145 0.458996
v 0.067452 2.099098 0.191006
v -0.067453 2.099098 0.191006
v 0.076219 2.195833 0.201241
v -0.076220 2.195833 0.201241
v 0.067452 2.116971 0.023832
v -0.067453 2.116971 0.023832
v 0.076219 2.214230 0.025597
v -0.076220 2.214230 0.025597
vn 0.1628 -0.4060 -0.8993
vn 0.1682 -0.0297 -0.9853
vn 0.4430 -0.0297 -0.8960
vn 0.3969 -0.4060 -0.8232
vn 0.6603 -0.4060 -0.6318
vn 0.7152 -0.0297 -0.6982
vn 0.8851 -0.0297 -0.4645
vn 0.8050 -0.4060 -0.4327
vn 0.9056 -0.4060 -0.1231
vn 0.9891 -0.0297 -0.1445
vn -0.9891 -0.0297 -0.1445
vn -0.9056 -0.4060 -0.1231
vn -0.8050 -0.4060 -0.4327
vn -0.8851 -0.0297 -0.4645
vn -0.7152 -0.0297 -0.6982
vn -0.6603 -0.4060 -0.6318
vn -0.3969 -0.4060 -0.8232
vn -0.4430 -0.0297 -0.8960
vn -0.1682 -0.0297 -0.9853
vn -0.1628 -0.4060 -0.8993
vn -0.0000 -0.9984 -0.0565
vn 0.0332 -0.9984 -0.0457
vn 0.0537 -0.9984 -0.0175
vn -0.0537 -0.9984 -0.0175
vn -0.0332 -0.9984 -0.0457
vn 0.7158 0.0094 0.6982
vn 0.8852 0.0094 0.4651
vn 0.8549 0.2862 0.4328
vn 0.6758 0.2862 0.6793
vn 0.4501 0.1079 -0.8864
vn 0.1569 0.1079 -0.9817
vn -0.0000 1.0000 -0.0000
vn 0.9821 0.1079 -0.1541
vn 0.8852 0.1079 -0.4526
vn 0.7040 0.1079 -0.7020
vn -0.1569 0.1079 -0.9817
vn -0.4501 0.1079 -0.8864
vn -0.7040 0.1079 -0.7020
vn -0.8852 0.1079 -0.4526
vn -0.9821 0.1079 -0.1541
vn -0.0621 0.9944 0.0855
vn -0.0000 0.9944 0.1057
vn 0.0621 0.9944 0.0855
vn 0.1005 0.9944 0.0327
vn -0.1005 0.9944 0.0327
vn -0.9895 0.0094 0.1441
vn -0.9460 0.2862 0.1523
vn 0.1687 0.0094 0.9856
vn 0.4428 0.0094 0.8966
vn 0.4372 0.2862 0.8526
vn 0.1474 0.2862 0.9468
vn -0.4428 0.0094 0.8966
vn -0.1687 0.0094 0.9856
vn -0.1474 0.2862 0.9468
vn -0.4372 0.2862 0.8526
vn 0.9895 0.0094 0.1441
vn 0.9460 0.2862 0.1523
vn -0.8852 0.0094 0.4651
vn -0.7158 0.0094 0.6982
vn -0.6758 0.2862 0.6793
vn -0.8549 0.2862 0.4328
vn -0.6802 0.7151 0.1613
vn 0.6802 0.7151 0.1613
vn -0.0000 0.4172 -0.9088
vn -0.1555 0.1708 -0.9729
vn 0.1555 0.1708 -0.9729
vn -0.0000 0.2361 -0.9717
vn -0.1522 -0.2653 0.9521
vn -0.0000 -0.3234 0.9463
vn 0.1522 -0.2653 0.9521
vn -0.0000 -0.7363 0.6767
vn -0.9965 -0.0335 0.0770
vn -0.0000 -0.3748 0.9271
vn 0.9965 -0.0335 0.0770
vn -0.0000 0.8749 -0.4843
vn 0.9961 -0.0652 0.0590
vn -0.0000 0.7462 -0.6657
vn -0.9961 -0.0652 0.0590
vn -0.9959 -0.0894 0.0095
vn -0.9957 -0.0802 0.0463
vn -0.0000 -0.8552 0.5183
vn 0.9957 -0.0802 0.0463
vn -0.0000 -0.9943 0.1063
vn 0.9959 -0.0894 0.0095
vn -0.0000 0.9946 -0.1042
vn 0.1628 -0.4060 0.8993
vn 0.1682 -0.0297 0.9853
vn 0.4430 -0.0297 0.8960
vn 0.3969 -0.4060 0.8232
vn 0.6603 -0.4060 0.6318
vn 0.7152 -0.0297 0.6982
vn 0.8851 -0.0297 0.4645
vn 0.8050 -0.4060 0.4327
vn 0.9056 -0.4060 0.1231
vn 0.9891 -0.0297 0.1445
vn -0.9891 -0.0297 0.1445
vn -0.9056 -0.4060 0.1231
vn -0.8050 -0.4060 0.4327
vn -0.8851 -0.0297 0.4645
vn -0.7152 -0.0297 0.6982
vn -0.6603 -0.4060 0.6318
vn -0.3969 -0.4060 0.8232
vn -0.4430 -0.0297 0.8960
vn -0.1682 -0.0297 0.9853
vn -0.1628 -0.4060 0.8993
vn -0.0000 -0.9984 0.0565
vn 0.0332 -0.9984 0.0457
vn 0.0537 -0.9984 0.0175
vn -0.0537 -0.9984 0.0175
vn -0.0332 -0.9984 0.0457
vn 0.7158 0.0094 -0.6982
vn 0.8852 0.0094 -0.4651
vn 0.8549 0.2862 -0.4328
vn 0.6758 0.2862 -0.6793
vn 0.4501 0.1079 0.8864
vn 0.1569 0.1079 0.9817
vn 0.9821 0.1079 0.1541
vn 0.8852 0.1079 0.4526
vn 0.7040 0.1079 0.7020
vn -0.1569 0.1079 0.9817
vn -0.4501 0.1079 0.8864
vn -0.7040 0.1079 0.7020
vn -0.8852 0.1079 0.4526
vn -0.9821 0.1079 0.1541
vn -0.0621 0.9944 -0.0855
vn -0.0000 0.9944 -0.1057
vn 0.0621 0.9944 -0.0855
vn 0.1005 0.9944 -0.0327
vn -0.1005 0.9944 -0.0327
vn -0.9895 0.0094 -0.1441
vn -0.9460 0.2862 -0.1523
vn 0.1687 0.0094 -0.9856
vn 0.4428 0.0094 -0.8966
vn 0.4372 0.2862 -0.8526
vn 0.1474 0.2862 -0.9468
vn -0.4428 0.0094 -0.8966
vn -0.1687 0.0094 -0.9856
vn -0.1474 0.2862 -0.9468
vn -0.4372 0.2862 -0.8526
vn 0.9895 0.0094 -0.1441
vn 0.9460 0.2862 -0.1523
vn -0.8852 0.0094 -0.4651
vn -0.7158 0.0094 -0.6982
vn -0.6758 0.2862 -0.6793
vn -0.8549 0.2862 -0.4328
vn -0.6802 0.7151 -0.1613
vn 0.6802 0.7151 -0.1613
vn -0.0000 0.4172 0.9088
vn -0.1555 0.1708 0.9729
vn 0.1555 0.1708 0.9729
vn -0.0000 0.2361 0.9717
vn -0.1522 -0.2653 -0.9521
vn -0.0000 -0.3234 -0.9463
vn 0.1522 -0.2653 -0.9521
vn -0.0000 -0.7363 -0.6767
vn -0.9965 -0.0335 -0.0770
vn -0.0000 -0.3748 -0.9271
vn 0.9965 -0.0335 -0.0770
vn -0.0000 0.8749 0.4843
vn 0.9961 -0.0652 -0.0590
vn -0.0000 0.7462 0.6657
vn -0.9961 -0.0652 -0.0590
vn -0.9959 -0.0894 -0.0095
vn -0.9957 -0.0802 -0.0463
vn -0.0000 -0.8552 -0.5183
vn 0.9957 -0.0802 -0.0463
vn 0.9960 -0.0898 -0.0000
vn -0.0000 -0.9943 -0.1063
vn 0.9959 -0.0894 -0.0095
vn -0.0000 0.9946 0.1042
vn -0.9960 -0.0898 -0.0000
vn -0.0000 -1.0000 -0.0000
vt 0.924615 0.066539
s 0
usemtl Material
f 1/1/1 23/1/1 60/1/1 21/1/1
f 23/1/2 2/1/2 22/1/2 60/1/2
f 60/1/3 22/1/3 4/1/3 24/1/3
f 21/1/4 60/1/4 24/1/4 3/1/4
f 3/1/5 24/1/5 61/1/5 25/1/5
f 24/1/6 4/1/6 26/1/6 61/1/6
f 61/1/7 26/1/7 6/1/7 27/1/7
f 25/1/8 61/1/8 27/1/8 5/1/8
f 5/1/9 27/1/9 62/1/9 28/1/9
f 27/1/10 6/1/10 29/1/10 62/1/10
f 63/1/11 31/1/11 8/1/11 32/1/11
f 30/1/12 63/1/12 32/1/12 7/1/12
f 7/1/13 32/1/13 64/1/13 33/1/13
f 32/1/14 8/1/14 34/1/14 64/1/14
f 64/1/15 34/1/15 10/1/15 35/1/15
f 33/1/16 64/1/16 35/1/16 9/1/16
f 9/1/17 35/1/17 65/1/17 36/1/17
f 35/1/18 10/1/18 37/1/18 65/1/18
f 65/1/19 37/1/19 2/1/19 23/1/19
f 36/1/20 65/1/20 23/1/20 1/1/20
f 1/1/21 21/1/21 66/1/21 36/1/21
f 3/1/22 25/1/22 66/1/22 21/1/22
f 5/1/23 28/1/23 66/1/23 25/1/23
f 7/1/24 33/1/24 66/1/24 30/1/24
f 9/1/25 36/1/25 66/1/25 33/1/25
f 15/1/26 42/1/26 67/1/26 56/1/26
f 42/1/27 14/1/27 55/1/27 67/1/27
f 67/1/28 55/1/28 19/1/28 53/1/28
f 56/1/29 67/1/29 53/1/29 20/1/29
f 4/1/30 22/1/30 68/1/30 45/1/30
f 22/1/31 2/1/31 44/1/31 68/1/31
f 45/1/32 68/1/32 38/1/32 12/1/32
f 29/1/33 6/1/33 46/1/33 69/1/33
f 69/1/32 46/1/32 13/1/32 40/1/32
f 6/1/34 26/1/34 70/1/34 46/1/34
f 26/1/35 4/1/35 45/1/35 70/1/35
f 70/1/32 45/1/32 12/1/32 39/1/32
f 46/1/32 70/1/32 39/1/32 13/1/32
f 2/1/36 37/1/36 71/1/36 44/1/36
f 37/1/37 10/1/37 47/1/37 71/1/37
f 71/1/32 47/1/32 15/1/32 43/1/32
f 10/1/38 34/1/38 72/1/38 47/1/38
f 34/1/39 8/1/39 48/1/39 72/1/39
f 72/1/32 48/1/32 14/1/32 42/1/32
f 47/1/32 72/1/32 42/1/32 15/1/32
f 8/1/40 31/1/40 73/1/40 48/1/40
f 48/1/32 73/1/32 41/1/32 14/1/32
f 17/1/41 49/1/41 74/1/41 50/1/41
f 16/1/42 54/1/42 74/1/42 49/1/42
f 20/1/43 53/1/43 74/1/43 54/1/43
f 19/1/44 52/1/44 74/1/44 53/1/44
f 18/1/45 50/1/45 74/1/45 51/1/45
f 40/1/46 13/1/46 57/1/46 75/1/46
f 75/1/47 57/1/47 18/1/47 51/1/47
f 11/1/48 43/1/48 76/1/48 58/1/48
f 43/1/49 15/1/49 56/1/49 76/1/49
f 76/1/50 56/1/50 20/1/50 54/1/50
f 58/1/51 76/1/51 54/1/51 16/1/51
f 12/1/52 38/1/52 77/1/52 59/1/52
f 38/1/53 11/1/53 58/1/53 77/1/53
f 77/1/54 58/1/54 16/1/54 49/1/54
f 59/1/55 77/1/55 49/1/55 17/1/55
f 14/1/56 41/1/56 78/1/56 55/1/56
f 55/1/57 78/1/57 52/1/57 19/1/57
f 13/1/58 39/1/58 79/1/58 57/1/58
f 39/1/59 12/1/59 59/1/59 79/1/59
f 79/1/60 59/1/60 17/1/60 50/1/60
f 57/1/61 79/1/61 50/1/61 18/1/61
f 71/1/62 43/1/62 81/1/62 83/1/62
f 38/1/63 68/1/63 82/1/63 80/1/63
f 82/1/64 83/1/64 87/1/64 86/1/64
f 71/1/65 83/1/65 44/1/65
f 68/1/66 44/1/66 82/1/66
f 82/1/67 44/1/67 83/1/67
f 38/1/68 80/1/68 11/1/68
f 80/1/69 81/1/69 11/1/69
f 11/1/70 81/1/70 43/1/70
f 85/1/71 84/1/71 88/1/71 89/1/71
f 83/1/72 81/1/72 85/1/72 87/1/72
f 81/1/73 80/1/73 84/1/73 85/1/73
f 80/1/74 82/1/74 86/1/74 84/1/74
f 90/1/75 91/1/75 95/1/75 94/1/75
f 84/1/76 86/1/76 90/1/76 88/1/76
f 86/1/77 87/1/77 91/1/77 90/1/77
f 87/1/78 85/1/78 89/1/78 91/1/78
f 95/1/79 93/1/79 97/1/79 99/1/79
f 91/1/80 89/1/80 93/1/80 95/1/80
f 89/1/81 88/1/81 92/1/81 93/1/81
f 88/1/82 90/1/82 94/1/82 92/1/82
f 93/1/83 92/1/83 96/1/83 97/1/83
f 92/1/84 94/1/84 98/1/84 96/1/84
f 94/1/85 95/1/85 99/1/85 98/1/85
f 100/1/86 120/1/86 151/1/86 122/1/86
f 122/1/87 151/1/87 121/1/87 101/1/87
f 151/1/88 123/1/88 103/1/88 121/1/88
f 120/1/89 102/1/89 123/1/89 151/1/89
f 102/1/90 124/1/90 152/1/90 123/1/90
f 123/1/91 152/1/91 125/1/91 103/1/91
f 152/1/92 126/1/92 105/1/92 125/1/92
f 124/1/93 104/1/93 126/1/93 152/1/93
f 104/1/94 28/1/94 62/1/94 126/1/94
f 126/1/95 62/1/95 29/1/95 105/1/95
f 63/1/96 127/1/96 107/1/96 31/1/96
f 30/1/97 106/1/97 127/1/97 63/1/97
f 106/1/98 128/1/98 153/1/98 127/1/98
f 127/1/99 153/1/99 129/1/99 107/1/99
f 153/1/100 130/1/100 109/1/100 129/1/100
f 128/1/101 108/1/101 130/1/101 153/1/101
f 108/1/102 131/1/102 154/1/102 130/1/102
f 130/1/103 154/1/103 132/1/103 109/1/103
f 154/1/104 122/1/104 101/1/104 132/1/104
f 131/1/105 100/1/105 122/1/105 154/1/105
f 100/1/106 131/1/106 66/1/106 120/1/106
f 102/1/107 120/1/107 66/1/107 124/1/107
f 104/1/108 124/1/108 66/1/108 28/1/108
f 106/1/109 30/1/109 66/1/109 128/1/109
f 108/1/110 128/1/110 66/1/110 131/1/110
f 114/1/111 147/1/111 155/1/111 135/1/111
f 135/1/112 155/1/112 146/1/112 113/1/112
f 155/1/113 144/1/113 118/1/113 146/1/113
f 147/1/114 119/1/114 144/1/114 155/1/114
f 103/1/115 138/1/115 156/1/115 121/1/115
f 121/1/116 156/1/116 137/1/116 101/1/116
f 138/1/32 111/1/32 133/1/32 156/1/32
f 29/1/117 69/1/117 139/1/117 105/1/117
f 69/1/32 40/1/32 112/1/32 139/1/32
f 105/1/118 139/1/118 157/1/118 125/1/118
f 125/1/119 157/1/119 138/1/119 103/1/119
f 157/1/32 134/1/32 111/1/32 138/1/32
f 139/1/32 112/1/32 134/1/32 157/1/32
f 101/1/120 137/1/120 158/1/120 132/1/120
f 132/1/121 158/1/121 140/1/121 109/1/121
f 158/1/32 136/1/32 114/1/32 140/1/32
f 109/1/122 140/1/122 159/1/122 129/1/122
f 129/1/123 159/1/123 141/1/123 107/1/123
f 159/1/32 135/1/32 113/1/32 141/1/32
f 140/1/32 114/1/32 135/1/32 159/1/32
f 107/1/124 141/1/124 73/1/124 31/1/124
f 141/1/32 113/1/32 41/1/32 73/1/32
f 116/1/125 143/1/125 74/1/125 142/1/125
f 115/1/126 142/1/126 74/1/126 145/1/126
f 119/1/127 145/1/127 74/1/127 144/1/127
f 118/1/128 144/1/128 74/1/128 52/1/128
f 117/1/129 51/1/129 74/1/129 143/1/129
f 40/1/130 75/1/130 148/1/130 112/1/130
f 75/1/131 51/1/131 117/1/131 148/1/131
f 110/1/132 149/1/132 160/1/132 136/1/132
f 136/1/133 160/1/133 147/1/133 114/1/133
f 160/1/134 145/1/134 119/1/134 147/1/134
f 149/1/135 115/1/135 145/1/135 160/1/135
f 111/1/136 150/1/136 161/1/136 133/1/136
f 133/1/137 161/1/137 149/1/137 110/1/137
f 161/1/138 142/1/138 115/1/138 149/1/138
f 150/1/139 116/1/139 142/1/139 161/1/139
f 113/1/140 146/1/140 78/1/140 41/1/140
f 146/1/141 118/1/141 52/1/141 78/1/141
f 112/1/142 148/1/142 162/1/142 134/1/142
f 134/1/143 162/1/143 150/1/143 111/1/143
f 162/1/144 143/1/144 116/1/144 150/1/144
f 148/1/145 117/1/145 143/1/145 162/1/145
f 158/1/146 166/1/146 164/1/146 136/1/146
f 133/1/147 163/1/147 165/1/147 156/1/147
f 165/1/148 169/1/148 170/1/148 166/1/148
f 158/1/149 137/1/149 166/1/149
f 156/1/150 165/1/150 137/1/150
f 165/1/151 166/1/151 137/1/151
f 133/1/152 110/1/152 163/1/152
f 163/1/153 110/1/153 164/1/153
f 110/1/154 136/1/154 164/1/154
f 168/1/155 172/1/155 171/1/155 167/1/155
f 166/1/156 170/1/156 168/1/156 164/1/156
f 164/1/157 168/1/157 167/1/157 163/1/157
f 163/1/158 167/1/158 169/1/158 165/1/158
f 173/1/159 177/1/159 178/1/159 174/1/159
f 167/1/160 171/1/160 173/1/160 169/1/160
f 169/1/161 173/1/161 174/1/161 170/1/161
f 170/1/162 174/1/162 172/1/162 168/1/162
f 178/1/163 182/1/163 180/1/163 176/1/163
f 174/1/164 178/1/164 176/1/164 172/1/164
f 172/1/165 176/1/165 175/1/165 171/1/165
f 171/1/166 175/1/166 177/1/166 173/1/166
f 98/1/167 181/1/167 179/1/167 96/1/167
f 176/1/168 180/1/168 179/1/168 175/1/168
f 175/1/169 179/1/169 181/1/169 177/1/169
f 177/1/170 181/1/170 182/1/170 178/1/170
f 99/1/171 97/1/171 180/1/171 182/1/171
f 97/1/172 96/1/172 179/1/172 180/1/172
f 99/1/32 182/1/32 181/1/32 98/1/32
