# Blender 3.5.1
# www.blender.org
mtllib Mushroom_1.mtl
o Cone
v 0.000000 0.897852 -0.787829
v 0.557079 0.897852 -0.557079
v 0.787829 0.897852 0.000000
v 0.557079 0.897852 0.557079
v 0.000000 0.897852 0.787829
v -0.557079 0.897852 0.557079
v -0.784980 0.897813 -0.000000
v -0.557079 0.897852 -0.557079
v 0.000000 0.979741 -0.826840
v 0.584664 0.979741 -0.584664
v 0.826840 0.979741 0.000000
v 0.584664 0.979741 0.584664
v 0.000000 0.979741 0.826840
v -0.584664 0.979741 0.584664
v -0.820990 0.980260 0.000000
v -0.584664 0.979741 -0.584664
v 0.000000 1.118825 -0.711954
v 0.503428 1.118825 -0.503428
v 0.711954 1.118825 0.000000
v 0.503428 1.118825 0.503428
v 0.000000 1.118825 0.711954
v -0.503428 1.118825 0.503428
v -0.694572 1.119288 0.000000
v -0.503428 1.118825 -0.503428
v 0.000000 1.274632 -0.375915
v 0.265812 1.274632 -0.265812
v 0.375915 1.274632 0.000000
v 0.265812 1.274632 0.265812
v 0.000000 1.274632 0.375915
v -0.265812 1.274632 0.265812
v -0.375915 1.274632 0.000000
v -0.265812 1.274632 -0.265812
v 0.000000 0.803161 -0.293912
v 0.207827 0.803161 -0.207827
v 0.293912 0.803161 -0.000000
v 0.207827 0.803161 0.207827
v 0.000000 0.803161 0.293912
v -0.207827 0.803161 0.207827
v -0.293912 0.803161 -0.000000
v -0.207827 0.803161 -0.207827
v 0.000000 -0.127981 -0.216000
v 0.000000 0.696368 -0.216000
v 0.148492 -0.127981 -0.152735
v 0.148492 0.696368 -0.152735
v 0.210000 -0.127981 0.000000
v 0.210000 0.696368 0.000000
v 0.148492 -0.127981 0.152735
v 0.148492 0.696368 0.152735
v 0.000000 -0.127981 0.216000
v 0.000000 0.696368 0.216000
v -0.148492 -0.127981 0.152735
v -0.148492 0.696368 0.152735
v -0.210000 -0.127981 0.000000
v -0.210000 0.696368 0.000000
v -0.148492 -0.127981 -0.152735
v -0.148492 0.696368 -0.152735
vn -0.8536 -0.3886 -0.3469
vn -0.3503 -0.4028 -0.8456
vn 0.8456 -0.4028 -0.3503
vn 0.8456 -0.4028 0.3503
vn 0.3503 -0.4028 0.8456
vn -0.3503 -0.4028 0.8456
vn -0.0778 -0.9791 -0.1877
vn 0.3042 0.6067 -0.7344
vn -0.8536 -0.3886 0.3469
vn 0.3503 -0.4028 -0.8456
vn 0.1716 0.8938 -0.4144
vn 0.7344 0.6067 -0.3042
vn -0.3042 0.6067 -0.7344
vn 0.7344 0.6067 0.3042
vn 0.3042 0.6067 0.7344
vn -0.3042 0.6067 0.7344
vn -0.7260 0.6255 0.2858
vn -0.7260 0.6255 -0.2858
vn -0.0000 1.0000 -0.0000
vn 0.4144 0.8938 0.1716
vn -0.1716 0.8938 0.4144
vn -0.4259 0.8892 -0.1673
vn 0.4144 0.8938 -0.1716
vn 0.1716 0.8938 0.4144
vn -0.4259 0.8892 0.1673
vn -0.1716 0.8938 -0.4144
vn -0.1884 -0.9790 -0.0774
vn -0.1884 -0.9790 0.0774
vn 0.0778 -0.9791 -0.1877
vn -0.0778 -0.9791 0.1877
vn 0.0778 -0.9791 0.1877
vn 0.1877 -0.9791 0.0778
vn 0.1877 -0.9791 -0.0778
vn 0.3920 -0.0000 -0.9200
vn 0.9276 -0.0000 -0.3736
vn 0.9276 -0.0000 0.3736
vn 0.3920 -0.0000 0.9200
vn -0.3920 -0.0000 0.9200
vn -0.9276 -0.0000 0.3736
vn 0.7516 -0.5834 0.3077
vn -0.9276 -0.0000 -0.3736
vn -0.3920 -0.0000 -0.9200
vn -0.0000 -1.0000 -0.0000
vn -0.7516 -0.5834 0.3077
vn 0.3194 -0.5633 0.7620
vn -0.7516 -0.5834 -0.3077
vn 0.7516 -0.5834 -0.3077
vn -0.3194 -0.5633 0.7620
vn -0.3194 -0.5633 -0.7620
vn 0.3194 -0.5633 -0.7620
vt 0.910882 0.143391
vt 0.546474 0.881899
vt 0.910882 0.143391
vt 0.546474 0.881899
vt 0.910882 0.143391
vt 0.546474 0.881899
vt 0.910882 0.143391
vt 0.546474 0.881899
vt 0.910882 0.143391
vt 0.546474 0.881899
vt 0.910882 0.143391
vt 0.546474 0.881899
vt 0.910882 0.143391
vt 0.546474 0.881899
vt 0.910882 0.143391
vt 0.546474 0.881899
vt 0.910882 0.143391
vt 0.912821 0.145330
vt 0.910882 0.143391
vt 0.912821 0.145330
vt 0.910882 0.143391
vt 0.912821 0.145330
vt 0.910882 0.143391
vt 0.912821 0.145330
vt 0.910882 0.143391
vt 0.912821 0.145330
vt 0.910882 0.143391
vt 0.912821 0.145330
vt 0.910882 0.143391
vt 0.912821 0.145330
vt 0.910882 0.143391
vt 0.912821 0.145330
vt 0.912821 0.145330
vt 0.912821 0.145330
vt 0.912821 0.145330
vt 0.912821 0.145330
vt 0.912821 0.145330
vt 0.912821 0.145330
vt 0.912821 0.145330
vt 0.912821 0.145330
vt 0.912821 0.145330
vt 0.912821 0.145330
vt 0.912821 0.145330
vt 0.912821 0.145330
vt 0.912821 0.145330
vt 0.912821 0.145330
vt 0.912821 0.145330
vt 0.912821 0.145330
vt 0.546474 0.881899
vt 0.447665 0.932158
vt 0.546474 0.881899
vt 0.447665 0.932158
vt 0.546474 0.881899
vt 0.447665 0.932158
vt 0.546474 0.881899
vt 0.447665 0.932158
vt 0.546474 0.881899
vt 0.447665 0.932158
vt 0.546474 0.881899
vt 0.447665 0.932158
vt 0.546474 0.881899
vt 0.447665 0.932158
vt 0.546474 0.881899
vt 0.447665 0.932158
vt 0.422466 0.923681
vt 0.422466 0.923681
vt 0.447665 0.932158
vt 0.422466 0.923681
vt 0.422466 0.923681
vt 0.447665 0.932158
vt 0.422466 0.923681
vt 0.422466 0.923681
vt 0.447665 0.932158
vt 0.422466 0.923681
vt 0.422466 0.923681
vt 0.447665 0.932158
vt 0.422466 0.923681
vt 0.422466 0.923681
vt 0.447665 0.932158
vt 0.422466 0.923681
vt 0.422466 0.923681
vt 0.447665 0.932158
vt 0.422466 0.923681
vt 0.422466 0.923681
vt 0.447665 0.932158
vt 0.422466 0.923681
vt 0.422466 0.923681
vt 0.447665 0.932158
s 0
usemtl Material
f 7/13/1 15/29/1 16/31/1 8/15/1
f 8/15/2 16/31/2 9/17/2 1/1/2
f 2/3/3 10/19/3 11/21/3 3/5/3
f 3/5/4 11/21/4 12/23/4 4/7/4
f 4/7/5 12/23/5 13/25/5 5/9/5
f 5/9/6 13/25/6 14/27/6 6/11/6
f 1/2/7 33/49/7 40/63/7 8/16/7
f 9/18/8 17/33/8 18/34/8 10/20/8
f 6/11/9 14/27/9 15/29/9 7/13/9
f 1/1/10 9/17/10 10/19/10 2/3/10
f 17/33/11 25/41/11 26/42/11 18/34/11
f 10/20/12 18/34/12 19/35/12 11/22/12
f 16/32/13 24/40/13 17/33/13 9/18/13
f 11/22/14 19/35/14 20/36/14 12/24/14
f 12/24/15 20/36/15 21/37/15 13/26/15
f 13/26/16 21/37/16 22/38/16 14/28/16
f 14/28/17 22/38/17 23/39/17 15/30/17
f 15/30/18 23/39/18 24/40/18 16/32/18
f 25/41/19 32/48/19 31/47/19 30/46/19 29/45/19 28/44/19 27/43/19 26/42/19
f 19/35/20 27/43/20 28/44/20 20/36/20
f 21/37/21 29/45/21 30/46/21 22/38/21
f 23/39/22 31/47/22 32/48/22 24/40/22
f 18/34/23 26/42/23 27/43/23 19/35/23
f 20/36/24 28/44/24 29/45/24 21/37/24
f 22/38/25 30/46/25 31/47/25 23/39/25
f 24/40/26 32/48/26 25/41/26 17/33/26
f 8/16/27 40/63/27 39/61/27 7/14/27
f 7/14/28 39/61/28 38/59/28 6/12/28
f 2/4/29 34/51/29 33/49/29 1/2/29
f 6/12/30 38/59/30 37/57/30 5/10/30
f 5/10/31 37/57/31 36/55/31 4/8/31
f 4/8/32 36/55/32 35/53/32 3/6/32
f 3/6/33 35/53/33 34/51/33 2/4/33
f 41/65/34 42/66/34 44/69/34 43/68/34
f 43/68/35 44/69/35 46/72/35 45/71/35
f 45/71/36 46/72/36 48/75/36 47/74/36
f 47/74/37 48/75/37 50/78/37 49/77/37
f 49/77/38 50/78/38 52/81/38 51/80/38
f 51/80/39 52/81/39 54/84/39 53/83/39
f 48/76/40 46/73/40 35/54/40 36/56/40
f 53/83/41 54/84/41 56/87/41 55/86/41
f 55/86/42 56/87/42 42/66/42 41/65/42
f 41/65/43 43/68/43 45/71/43 47/74/43 49/77/43 51/80/43 53/83/43 55/86/43
f 54/85/44 52/82/44 38/60/44 39/62/44
f 50/79/45 48/76/45 36/56/45 37/58/45
f 56/88/46 54/85/46 39/62/46 40/64/46
f 46/73/47 44/70/47 34/52/47 35/54/47
f 52/82/48 50/79/48 37/58/48 38/60/48
f 42/67/49 56/88/49 40/64/49 33/50/49
f 44/70/50 42/67/50 33/50/50 34/52/50
