# Blender 3.6.1
# www.blender.org
mtllib MushroomUnderGround.mtl
o Cube
v -1.251428 -0.220969 1.251428
v -0.500000 0.643566 0.500000
v -1.251428 -0.220969 -1.251428
v -0.500000 0.643566 -0.500000
v 1.251428 -0.220969 1.251428
v 0.500000 0.643566 0.500000
v 1.251428 -0.220969 -1.251428
v 0.500000 0.643566 -0.500000
v -1.882005 -0.286487 -0.000000
v -0.621646 0.284616 0.621646
v -0.609568 0.753134 0.000000
v -0.621646 0.284616 -0.621646
v 0.000000 -0.286487 -1.882005
v -0.000000 0.753134 -0.609568
v 0.621646 0.284616 -0.621646
v 1.882005 -0.286487 0.000000
v 0.609568 0.753134 0.000000
v 0.621646 0.284616 0.621646
v -0.000000 -0.286487 1.882005
v -0.000000 0.753134 0.609568
v -0.856140 0.284616 0.000000
v 0.000000 0.284616 -0.856140
v 0.856140 0.284616 0.000000
v -0.000000 0.284616 0.856140
v -0.000000 0.983073 0.000000
vn -0.4823 0.8545 0.1929
vn -0.8533 0.4243 0.3032
vn -0.8533 0.4243 -0.3032
vn -0.4823 0.8545 -0.1929
vn -0.1929 0.8545 -0.4823
vn -0.3032 0.4243 -0.8533
vn 0.3032 0.4243 -0.8533
vn 0.1929 0.8545 -0.4823
vn 0.4823 0.8545 -0.1929
vn 0.8533 0.4243 -0.3032
vn 0.8533 0.4243 0.3032
vn 0.4823 0.8545 0.1929
vn 0.1929 0.8545 0.4823
vn 0.3032 0.4243 0.8533
vn -0.3032 0.4243 0.8533
vn -0.1929 0.8545 0.4823
vn 0.3061 0.9015 -0.3061
vn -0.3061 0.9015 -0.3061
vn -0.3061 0.9015 0.3061
vn 0.3061 0.9015 0.3061
vt 0.000100 0.728508
vt 0.276106 0.602344
vt 0.416669 0.723658
vt 0.313747 0.999900
vt 0.367874 0.560396
vt 0.460676 0.605545
vt 0.560396 0.632126
vt 0.602344 0.723894
vt 0.728508 0.999900
vt 0.723658 0.583331
vt 0.999900 0.686253
vt 0.605545 0.539324
vt 0.632126 0.439604
vt 0.723894 0.397656
vt 0.999900 0.271492
vt 0.583331 0.276342
vt 0.686253 0.000100
vt 0.539324 0.394455
vt 0.439604 0.367874
vt 0.397656 0.276106
vt 0.271491 0.000100
vt 0.276342 0.416669
vt 0.000100 0.313747
vt 0.394455 0.460676
vt 0.500000 0.500000
s 0
usemtl Material
f 1/1/1 10/2/1 21/3/1 9/4/1
f 10/2/2 2/5/2 11/6/2 21/3/2
f 21/3/3 11/6/3 4/7/3 12/8/3
f 9/4/4 21/3/4 12/8/4 3/9/4
f 3/9/5 12/8/5 22/10/5 13/11/5
f 12/8/6 4/7/6 14/12/6 22/10/6
f 22/10/7 14/12/7 8/13/7 15/14/7
f 13/11/8 22/10/8 15/14/8 7/15/8
f 7/15/9 15/14/9 23/16/9 16/17/9
f 15/14/10 8/13/10 17/18/10 23/16/10
f 23/16/11 17/18/11 6/19/11 18/20/11
f 16/17/12 23/16/12 18/20/12 5/21/12
f 5/21/13 18/20/13 24/22/13 19/23/13
f 18/20/14 6/19/14 20/24/14 24/22/14
f 24/22/15 20/24/15 2/5/15 10/2/15
f 19/23/16 24/22/16 10/2/16 1/1/16
f 8/13/17 14/12/17 25/25/17 17/18/17
f 14/12/18 4/7/18 11/6/18 25/25/18
f 25/25/19 11/6/19 2/5/19 20/24/19
f 17/18/20 25/25/20 20/24/20 6/19/20
