# Blender 3.6.1
# www.blender.org
mtllib Mushroom_Standart_2.mtl
o Cone
v 0.000000 0.897852 -0.787829
v 0.557079 0.897852 -0.557079
v 0.787829 0.897852 0.000000
v 0.557079 0.897852 0.557079
v 0.000000 0.897852 0.787829
v -0.557079 0.897852 0.557079
v -0.784980 0.897813 -0.000000
v -0.557079 0.897852 -0.557079
v 0.000000 0.979741 -0.826840
v 0.584664 0.979741 -0.584664
v 0.826840 0.979741 0.000000
v 0.584664 0.979741 0.584664
v 0.000000 0.979741 0.826840
v -0.584664 0.979741 0.584664
v -0.820990 0.980260 0.000000
v -0.584664 0.979741 -0.584664
v 0.000000 1.118825 -0.711954
v 0.503428 1.118825 -0.503428
v 0.711954 1.118825 0.000000
v 0.503428 1.118825 0.503428
v 0.000000 1.118825 0.711954
v -0.503428 1.118825 0.503428
v -0.694572 1.119288 0.000000
v -0.503428 1.118825 -0.503428
v 0.000000 1.475140 -0.469314
v 0.331855 1.475140 -0.331855
v 0.469314 1.475140 -0.000000
v 0.331855 1.475140 0.331855
v 0.000000 1.475140 0.469314
v -0.331855 1.475140 0.331855
v -0.469314 1.475140 -0.000000
v -0.331855 1.475140 -0.331855
v 0.000000 0.701138 -0.293912
v 0.207827 0.701138 -0.207827
v 0.293912 0.701138 -0.000000
v 0.207827 0.701138 0.207827
v 0.000000 0.701138 0.293912
v -0.207827 0.701138 0.207827
v -0.293912 0.701138 -0.000000
v -0.207827 0.701138 -0.207827
v 0.000000 -0.127981 -0.216000
v 0.000000 0.594345 -0.216000
v 0.148492 -0.127981 -0.152735
v 0.148492 0.594345 -0.152735
v 0.210000 -0.127981 0.000000
v 0.210000 0.594345 0.000000
v 0.148492 -0.127981 0.152735
v 0.148492 0.594345 0.152735
v 0.000000 -0.127981 0.216000
v 0.000000 0.594345 0.216000
v -0.148492 -0.127981 0.152735
v -0.148492 0.594345 0.152735
v -0.210000 -0.127981 0.000000
v -0.210000 0.594345 0.000000
v -0.148492 -0.127981 -0.152735
v -0.148492 0.594345 -0.152735
v -0.176223 1.997106 -0.176223
v 0.000000 1.997106 -0.249217
v -0.249216 1.997106 0.000000
v -0.176223 1.997106 0.176223
v 0.000000 1.997106 0.249217
v 0.176223 1.997106 0.176223
v 0.249217 1.997106 0.000000
v 0.176223 1.997106 -0.176223
v -0.097111 2.073263 -0.097111
v 0.000000 2.073263 -0.137336
v -0.137336 2.073263 0.000000
v -0.097111 2.073263 0.097111
v 0.000000 2.073263 0.137336
v 0.097111 2.073263 0.097111
v 0.137336 2.073263 0.000000
v 0.097111 2.073263 -0.097111
vn -0.8536 -0.3886 -0.3469
vn -0.3503 -0.4028 -0.8456
vn 0.8456 -0.4028 -0.3503
vn 0.8456 -0.4028 0.3503
vn 0.3503 -0.4028 0.8456
vn -0.3503 -0.4028 0.8456
vn -0.1515 -0.9183 -0.3657
vn 0.3042 0.6067 -0.7344
vn -0.8536 -0.3886 0.3469
vn 0.3503 -0.4028 -0.8456
vn 0.3239 0.5325 -0.7820
vn 0.7344 0.6067 -0.3042
vn -0.3042 0.6067 -0.7344
vn 0.7344 0.6067 0.3042
vn 0.3042 0.6067 0.7344
vn -0.3042 0.6067 0.7344
vn -0.7260 0.6255 0.2858
vn -0.7260 0.6255 -0.2858
vn -0.8609 0.3630 0.3566
vn 0.7820 0.5325 0.3239
vn -0.3239 0.5325 0.7820
vn -0.7955 0.5187 -0.3132
vn 0.7820 0.5325 -0.3239
vn 0.3239 0.5325 0.7820
vn -0.7955 0.5187 0.3132
vn -0.3239 0.5325 -0.7820
vn -0.3671 -0.9179 -0.1507
vn -0.3671 -0.9179 0.1507
vn 0.1515 -0.9183 -0.3657
vn -0.1515 -0.9183 0.3657
vn 0.1515 -0.9183 0.3657
vn 0.3657 -0.9183 0.1515
vn 0.3657 -0.9183 -0.1515
vn 0.3920 -0.0000 -0.9200
vn 0.9276 -0.0000 -0.3736
vn 0.9276 -0.0000 0.3736
vn 0.3920 -0.0000 0.9200
vn -0.3920 -0.0000 0.9200
vn -0.9276 -0.0000 0.3736
vn 0.7516 -0.5834 0.3077
vn -0.9276 -0.0000 -0.3736
vn -0.3920 -0.0000 -0.9200
vn -0.0000 -1.0000 -0.0000
vn -0.7516 -0.5834 0.3077
vn 0.3194 -0.5633 0.7620
vn -0.7516 -0.5834 -0.3077
vn 0.7516 -0.5834 -0.3077
vn -0.3194 -0.5633 0.7620
vn -0.3194 -0.5633 -0.7620
vn 0.3194 -0.5633 -0.7620
vn 0.2270 0.8051 0.5480
vn -0.3566 0.3630 -0.8609
vn 0.3566 0.3630 -0.8609
vn 0.8609 0.3630 0.3566
vn -0.3566 0.3630 0.8609
vn -0.8609 0.3630 -0.3566
vn 0.8609 0.3630 -0.3566
vn 0.3566 0.3630 0.8609
vn -0.0000 1.0000 -0.0000
vn -0.5480 0.8051 0.2270
vn -0.2270 0.8051 -0.5480
vn 0.2270 0.8051 -0.5480
vn 0.5480 0.8051 0.2270
vn -0.2270 0.8051 0.5480
vn -0.5480 0.8051 -0.2270
vn 0.5480 0.8051 -0.2270
vt 0.806267 0.752622
vt 0.564936 0.886514
vt 0.808205 0.754560
vt 0.410159 0.929835
vt 0.410742 0.924466
s 0
usemtl Material
f 7/1/1 15/1/1 16/1/1 8/1/1
f 8/1/2 16/1/2 9/1/2 1/1/2
f 2/1/3 10/1/3 11/1/3 3/1/3
f 3/1/4 11/1/4 12/1/4 4/1/4
f 4/1/5 12/1/5 13/1/5 5/1/5
f 5/1/6 13/1/6 14/1/6 6/1/6
f 1/2/7 33/2/7 40/2/7 8/2/7
f 9/3/8 17/3/8 18/3/8 10/3/8
f 6/1/9 14/1/9 15/1/9 7/1/9
f 1/1/10 9/1/10 10/1/10 2/1/10
f 17/3/11 25/3/11 26/3/11 18/3/11
f 10/3/12 18/3/12 19/3/12 11/3/12
f 16/3/13 24/3/13 17/3/13 9/3/13
f 11/3/14 19/3/14 20/3/14 12/3/14
f 12/3/15 20/3/15 21/3/15 13/3/15
f 13/3/16 21/3/16 22/3/16 14/3/16
f 14/3/17 22/3/17 23/3/17 15/3/17
f 15/3/18 23/3/18 24/3/18 16/3/18
f 31/3/19 30/3/19 60/3/19 59/3/19
f 19/3/20 27/3/20 28/3/20 20/3/20
f 21/3/21 29/3/21 30/3/21 22/3/21
f 23/3/22 31/3/22 32/3/22 24/3/22
f 18/3/23 26/3/23 27/3/23 19/3/23
f 20/3/24 28/3/24 29/3/24 21/3/24
f 22/3/25 30/3/25 31/3/25 23/3/25
f 24/3/26 32/3/26 25/3/26 17/3/26
f 8/2/27 40/2/27 39/2/27 7/2/27
f 7/2/28 39/2/28 38/2/28 6/2/28
f 2/2/29 34/2/29 33/2/29 1/2/29
f 6/2/30 38/2/30 37/2/30 5/2/30
f 5/2/31 37/2/31 36/2/31 4/2/31
f 4/2/32 36/2/32 35/2/32 3/2/32
f 3/2/33 35/2/33 34/2/33 2/2/33
f 41/4/34 42/4/34 44/4/34 43/4/34
f 43/4/35 44/4/35 46/4/35 45/4/35
f 45/4/36 46/4/36 48/4/36 47/4/36
f 47/4/37 48/4/37 50/4/37 49/4/37
f 49/4/38 50/4/38 52/4/38 51/4/38
f 51/4/39 52/4/39 54/4/39 53/4/39
f 48/5/40 46/5/40 35/5/40 36/5/40
f 53/4/41 54/4/41 56/4/41 55/4/41
f 55/4/42 56/4/42 42/4/42 41/4/42
f 41/4/43 43/4/43 45/4/43 47/4/43 49/4/43 51/4/43 53/4/43 55/4/43
f 54/5/44 52/5/44 38/5/44 39/5/44
f 50/5/45 48/5/45 36/5/45 37/5/45
f 56/5/46 54/5/46 39/5/46 40/5/46
f 46/5/47 44/5/47 34/5/47 35/5/47
f 52/5/48 50/5/48 37/5/48 38/5/48
f 42/5/49 56/5/49 40/5/49 33/5/49
f 44/5/50 42/5/50 33/5/50 34/5/50
f 61/3/51 62/3/51 70/3/51 69/3/51
f 25/3/52 32/3/52 57/3/52 58/3/52
f 26/3/53 25/3/53 58/3/53 64/3/53
f 28/3/54 27/3/54 63/3/54 62/3/54
f 30/3/55 29/3/55 61/3/55 60/3/55
f 32/3/56 31/3/56 59/3/56 57/3/56
f 27/3/57 26/3/57 64/3/57 63/3/57
f 29/3/58 28/3/58 62/3/58 61/3/58
f 66/3/59 65/3/59 67/3/59 68/3/59 69/3/59 70/3/59 71/3/59 72/3/59
f 59/3/60 60/3/60 68/3/60 67/3/60
f 58/3/61 57/3/61 65/3/61 66/3/61
f 64/3/62 58/3/62 66/3/62 72/3/62
f 62/3/63 63/3/63 71/3/63 70/3/63
f 60/3/64 61/3/64 69/3/64 68/3/64
f 57/3/65 59/3/65 67/3/65 65/3/65
f 63/3/66 64/3/66 72/3/66 71/3/66
